{"glyphs":{"0":{"ha":979,"x_min":0,"x_max":0,"o":"m 490 -21 b 900 486 769 -21 900 203 b 490 993 900 769 769 993 b 81 486 211 993 81 769 b 490 -21 81 203 211 -21 z m 490 28 b 128 486 232 28 128 236 b 490 944 128 736 232 944 b 853 486 747 944 853 736 b 490 28 853 236 747 28 z "},"1":{"ha":333,"x_min":0,"x_max":0,"o":"m 219 972 l 47 972 l 42 926 l 172 926 l 172 0 l 219 0 z "},"2":{"ha":857,"x_min":0,"x_max":0,"o":"m 103 0 l 760 0 l 760 44 l 158 44 l 538 364 b 764 704 703 504 764 571 b 432 993 764 879 649 993 b 97 649 217 993 79 881 l 144 649 b 435 946 131 854 236 946 b 718 708 626 946 718 857 b 519 408 718 575 639 507 l 103 51 z "},"3":{"ha":849,"x_min":0,"x_max":0,"o":"m 419 -21 b 768 283 665 -21 768 126 b 381 571 768 543 535 594 l 710 932 l 710 972 l 139 972 l 139 926 l 646 926 l 317 563 l 317 521 b 438 533 353 526 393 533 b 722 282 536 533 722 504 b 422 25 722 135 628 25 b 125 296 226 25 113 128 l 81 296 b 419 -21 69 88 208 -21 z "},"4":{"ha":828,"x_min":0,"x_max":0,"o":"m 713 972 l 644 972 l 42 222 l 42 176 l 667 176 l 667 0 l 713 0 z m 101 222 l 667 928 l 667 222 z "},"5":{"ha":863,"x_min":0,"x_max":0,"o":"m 425 -21 b 782 315 639 -21 782 86 b 436 636 782 514 671 636 b 156 540 311 636 211 601 l 156 925 l 725 925 l 725 972 l 110 972 l 110 463 l 146 463 b 429 593 167 514 243 593 b 736 314 626 593 736 501 b 424 24 736 122 632 24 b 129 296 204 24 121 138 l 81 296 b 425 -21 72 100 193 -21 z "},"6":{"ha":874,"x_min":0,"x_max":0,"o":"m 446 663 b 253 611 353 663 297 646 l 557 972 l 496 972 l 194 608 b 81 326 101 497 81 407 b 436 -21 81 129 210 -21 b 793 322 664 -21 793 132 b 446 663 793 497 689 663 z m 436 25 b 128 325 235 25 128 157 b 436 619 128 493 235 619 b 746 325 639 619 746 493 b 436 25 746 157 639 25 z "},"7":{"ha":869,"x_min":0,"x_max":0,"o":"m 817 972 l 57 972 l 57 924 l 731 924 l 117 0 l 175 0 z "},"8":{"ha":910,"x_min":0,"x_max":0,"o":"m 456 -21 b 810 263 704 -21 810 107 b 611 521 810 389 733 486 b 769 749 703 556 769 636 b 456 993 769 881 676 993 b 140 749 235 993 140 881 b 299 521 140 636 208 556 b 101 263 176 486 101 392 b 456 -21 101 107 206 -21 z m 456 544 b 192 746 306 544 192 606 b 456 944 192 889 306 944 b 718 746 606 944 718 889 b 456 544 718 606 606 544 z m 456 28 b 153 265 293 28 153 89 b 456 497 153 433 286 497 b 757 265 624 497 757 433 b 456 28 757 86 617 28 z "},"9":{"ha":874,"x_min":0,"x_max":0,"o":"m 436 993 b 81 650 210 993 81 840 b 428 310 81 475 185 310 b 621 361 521 310 576 326 l 317 0 l 378 0 l 679 364 b 793 646 772 475 793 565 b 436 993 793 843 664 993 z m 436 353 b 128 647 235 353 128 479 b 436 947 128 815 235 947 b 746 647 639 947 746 815 b 436 353 746 479 639 353 z "}," ":{"ha":264,"x_min":0,"x_max":0,"o":""},"A":{"ha":1053,"x_min":0,"x_max":0,"o":"m 947 0 l 1001 0 l 554 972 l 499 972 l 53 0 l 106 0 l 179 161 l 874 161 z m 200 207 l 526 919 l 853 207 z "},"Á":{"ha":1053,"x_min":0,"x_max":0,"o":"m 683 1294 l 633 1294 l 518 1065 l 568 1065 z m 947 0 l 1001 0 l 554 972 l 499 972 l 53 0 l 106 0 l 179 161 l 874 161 z m 200 207 l 526 919 l 853 207 z "},"Ă":{"ha":1053,"x_min":0,"x_max":0,"o":"m 526 1043 b 744 1294 688 1043 763 1154 l 699 1294 b 526 1088 714 1164 657 1088 b 353 1294 396 1088 339 1164 l 307 1294 b 526 1043 289 1154 364 1043 z m 947 0 l 1001 0 l 554 972 l 499 972 l 53 0 l 106 0 l 179 161 l 874 161 z m 200 207 l 526 919 l 853 207 z "},"Ǎ":{"ha":1053,"x_min":0,"x_max":0,"o":"m 490 1065 l 560 1065 l 675 1294 l 625 1294 l 525 1096 l 425 1294 l 375 1294 z m 947 0 l 1001 0 l 554 972 l 499 972 l 53 0 l 106 0 l 179 161 l 874 161 z m 200 207 l 526 919 l 853 207 z "},"Â":{"ha":1053,"x_min":0,"x_max":0,"o":"m 525 1265 l 625 1067 l 675 1067 l 560 1296 l 490 1296 l 375 1067 l 425 1067 z m 947 0 l 1001 0 l 554 972 l 499 972 l 53 0 l 106 0 l 179 161 l 874 161 z m 200 207 l 526 919 l 853 207 z "},"Ä":{"ha":1053,"x_min":0,"x_max":0,"o":"m 351 1185 b 389 1222 378 1185 389 1206 b 351 1260 389 1239 378 1260 b 314 1222 325 1260 314 1239 b 351 1185 314 1206 325 1185 z m 697 1185 b 735 1222 722 1185 735 1206 b 697 1260 735 1239 722 1260 b 660 1222 671 1260 660 1239 b 697 1185 660 1206 671 1185 z m 947 0 l 1001 0 l 554 972 l 499 972 l 53 0 l 106 0 l 179 161 l 874 161 z m 200 207 l 526 919 l 853 207 z "},"À":{"ha":1053,"x_min":0,"x_max":0,"o":"m 550 1065 l 435 1294 l 385 1294 l 500 1065 z m 947 0 l 1001 0 l 554 972 l 499 972 l 53 0 l 106 0 l 179 161 l 874 161 z m 200 207 l 526 919 l 853 207 z "},"Ā":{"ha":1053,"x_min":0,"x_max":0,"o":"m 721 1294 l 332 1294 l 332 1250 l 721 1250 z m 947 0 l 1001 0 l 554 972 l 499 972 l 53 0 l 106 0 l 179 161 l 874 161 z m 200 207 l 526 919 l 853 207 z "},"Ą":{"ha":1053,"x_min":0,"x_max":0,"o":"m 1000 0 l 1001 0 l 554 972 l 499 972 l 53 0 l 106 0 l 179 161 l 874 161 l 946 4 b 772 -197 853 -29 772 -97 b 922 -340 772 -275 821 -340 b 986 -332 928 -340 961 -342 l 986 -299 l 981 -300 b 819 -187 903 -308 819 -282 b 1000 0 819 -114 868 -44 z m 200 207 l 526 919 l 853 207 z "},"Å":{"ha":1053,"x_min":0,"x_max":0,"o":"m 525 1090 b 640 1203 599 1090 640 1144 b 525 1317 640 1263 599 1317 b 411 1203 453 1317 411 1263 b 525 1090 411 1144 453 1090 z m 525 1274 b 597 1203 572 1274 597 1243 b 525 1133 597 1164 572 1133 b 454 1203 479 1133 454 1164 b 525 1274 454 1243 479 1274 z m 947 0 l 1001 0 l 554 972 l 499 972 l 53 0 l 106 0 l 179 161 l 874 161 z m 200 207 l 526 919 l 853 207 z "},"Ã":{"ha":1053,"x_min":0,"x_max":0,"o":"m 644 1253 b 758 1217 668 1253 719 1247 l 758 1264 b 647 1299 728 1292 676 1299 b 411 1236 557 1299 493 1236 b 297 1272 389 1236 336 1240 l 297 1225 b 408 1190 326 1197 378 1190 b 644 1253 499 1190 560 1253 z m 947 0 l 1001 0 l 554 972 l 499 972 l 53 0 l 106 0 l 179 161 l 874 161 z m 200 207 l 526 919 l 853 207 z "},"Æ":{"ha":1600,"x_min":0,"x_max":0,"o":"m 1563 926 l 1563 972 l 736 972 l 39 0 l 97 0 l 264 232 l 776 232 l 776 0 l 1563 0 l 1563 46 l 826 46 l 826 450 l 1522 450 l 1522 496 l 826 496 l 826 926 z m 299 281 l 776 943 l 776 281 z "},"B":{"ha":1017,"x_min":0,"x_max":0,"o":"m 751 494 b 907 717 881 544 907 622 b 593 972 907 844 853 972 l 115 972 l 115 0 l 632 0 b 946 254 897 0 946 150 b 751 494 946 365 888 472 z m 583 926 b 857 714 769 926 857 869 b 583 514 857 568 769 514 l 165 514 l 165 926 z m 622 46 l 165 46 l 165 468 l 622 465 b 896 258 807 465 896 401 b 622 46 896 107 807 46 z "},"C":{"ha":1138,"x_min":0,"x_max":0,"o":"m 588 28 b 131 486 286 28 131 238 b 588 944 131 735 286 944 b 1001 656 793 944 943 860 l 1050 656 b 588 993 992 888 822 993 b 81 486 263 993 81 763 b 588 -21 81 210 263 -21 b 1050 317 822 -21 992 85 l 1001 317 b 588 28 943 113 793 28 z "},"Ć":{"ha":1138,"x_min":0,"x_max":0,"o":"m 568 1065 l 618 1065 l 733 1294 l 683 1294 z m 588 28 b 131 486 286 28 131 238 b 588 944 131 735 286 944 b 1001 656 793 944 943 860 l 1050 656 b 588 993 992 888 822 993 b 81 486 263 993 81 763 b 588 -21 81 210 263 -21 b 1050 317 822 -21 992 85 l 1001 317 b 588 28 943 113 793 28 z "},"Č":{"ha":1138,"x_min":0,"x_max":0,"o":"m 542 1065 l 611 1065 l 726 1294 l 676 1294 l 576 1096 l 476 1294 l 426 1294 z m 588 28 b 131 486 286 28 131 238 b 588 944 131 735 286 944 b 1001 656 793 944 943 860 l 1050 656 b 588 993 992 888 822 993 b 81 486 263 993 81 763 b 588 -21 81 210 263 -21 b 1050 317 822 -21 992 85 l 1001 317 b 588 28 943 113 793 28 z "},"Ç":{"ha":1138,"x_min":0,"x_max":0,"o":"m 588 28 b 131 486 286 28 131 238 b 588 944 131 735 286 944 b 1001 656 793 944 943 860 l 1050 656 b 588 993 992 888 822 993 b 81 486 263 993 81 763 b 531 -18 81 226 242 7 l 471 -119 l 581 -119 b 663 -204 640 -119 663 -161 b 574 -281 663 -247 639 -281 b 507 -257 539 -281 521 -267 l 489 -292 b 579 -326 506 -312 538 -326 b 710 -201 653 -326 710 -281 b 582 -76 710 -125 658 -76 b 546 -79 568 -76 557 -78 l 579 -21 l 588 -21 b 1050 317 822 -21 992 85 l 1001 317 b 588 28 943 113 793 28 z "},"Ċ":{"ha":1138,"x_min":0,"x_max":0,"o":"m 576 1185 b 614 1222 603 1185 614 1206 b 576 1260 614 1239 603 1260 b 539 1222 550 1260 539 1239 b 576 1185 539 1206 550 1185 z m 588 28 b 131 486 286 28 131 238 b 588 944 131 735 286 944 b 1001 656 793 944 943 860 l 1050 656 b 588 993 992 888 822 993 b 81 486 263 993 81 763 b 588 -21 81 210 263 -21 b 1050 317 822 -21 992 85 l 1001 317 b 588 28 943 113 793 28 z "},"D":{"ha":1096,"x_min":0,"x_max":0,"o":"m 115 0 l 531 0 b 1008 486 860 0 1008 178 b 531 972 1008 794 860 972 l 115 972 z m 165 47 l 165 925 l 518 925 b 958 486 822 925 958 783 b 518 47 958 189 822 47 z "},"Ð":{"ha":1082,"x_min":0,"x_max":0,"o":"m 531 972 l 115 972 l 115 508 l 0 508 l 0 465 l 115 465 l 115 0 l 531 0 b 1008 486 860 0 1008 178 b 531 972 1008 794 860 972 z m 518 47 l 165 47 l 165 465 l 333 465 l 333 508 l 165 508 l 165 925 l 518 925 b 958 486 822 925 958 783 b 518 47 958 189 822 47 z "},"Ď":{"ha":1096,"x_min":0,"x_max":0,"o":"m 507 1065 l 576 1065 l 692 1294 l 642 1294 l 542 1096 l 442 1294 l 392 1294 z m 531 972 l 115 972 l 115 0 l 531 0 b 1008 486 860 0 1008 178 b 531 972 1008 794 860 972 z m 518 47 l 165 47 l 165 925 l 518 925 b 958 486 822 925 958 783 b 518 47 958 189 822 47 z "},"Đ":{"ha":1082,"x_min":0,"x_max":0,"o":"m 531 972 l 115 972 l 115 508 l 0 508 l 0 465 l 115 465 l 115 0 l 531 0 b 1008 486 860 0 1008 178 b 531 972 1008 794 860 972 z m 518 47 l 165 47 l 165 465 l 333 465 l 333 508 l 165 508 l 165 925 l 518 925 b 958 486 822 925 958 783 b 518 47 958 189 822 47 z "},"E":{"ha":939,"x_min":0,"x_max":0,"o":"m 901 926 l 901 972 l 115 972 l 115 0 l 901 0 l 901 46 l 165 46 l 165 450 l 861 450 l 861 496 l 165 496 l 165 926 z "},"É":{"ha":939,"x_min":0,"x_max":0,"o":"m 646 1294 l 596 1294 l 481 1065 l 531 1065 z m 901 926 l 901 972 l 115 972 l 115 0 l 901 0 l 901 46 l 165 46 l 165 450 l 861 450 l 861 496 l 165 496 l 165 926 z "},"Ě":{"ha":939,"x_min":0,"x_max":0,"o":"m 454 1065 l 524 1065 l 639 1294 l 589 1294 l 489 1096 l 389 1294 l 339 1294 z m 901 926 l 901 972 l 115 972 l 115 0 l 901 0 l 901 46 l 165 46 l 165 450 l 861 450 l 861 496 l 165 496 l 165 926 z "},"Ê":{"ha":939,"x_min":0,"x_max":0,"o":"m 489 1265 l 589 1067 l 639 1067 l 524 1296 l 454 1296 l 339 1067 l 389 1067 z m 901 926 l 901 972 l 115 972 l 115 0 l 901 0 l 901 46 l 165 46 l 165 450 l 861 450 l 861 496 l 165 496 l 165 926 z "},"Ë":{"ha":939,"x_min":0,"x_max":0,"o":"m 314 1185 b 351 1222 340 1185 351 1206 b 314 1260 351 1239 340 1260 b 276 1222 288 1260 276 1239 b 314 1185 276 1206 288 1185 z m 660 1185 b 697 1222 685 1185 697 1206 b 660 1260 697 1239 685 1260 b 622 1222 633 1260 622 1239 b 660 1185 622 1206 633 1185 z m 901 926 l 901 972 l 115 972 l 115 0 l 901 0 l 901 46 l 165 46 l 165 450 l 861 450 l 861 496 l 165 496 l 165 926 z "},"Ė":{"ha":939,"x_min":0,"x_max":0,"o":"m 489 1185 b 526 1222 515 1185 526 1206 b 489 1260 526 1239 515 1260 b 451 1222 463 1260 451 1239 b 489 1185 451 1206 463 1185 z m 901 926 l 901 972 l 115 972 l 115 0 l 901 0 l 901 46 l 165 46 l 165 450 l 861 450 l 861 496 l 165 496 l 165 926 z "},"È":{"ha":939,"x_min":0,"x_max":0,"o":"m 514 1065 l 399 1294 l 349 1294 l 464 1065 z m 901 926 l 901 972 l 115 972 l 115 0 l 901 0 l 901 46 l 165 46 l 165 450 l 861 450 l 861 496 l 165 496 l 165 926 z "},"Ē":{"ha":939,"x_min":0,"x_max":0,"o":"m 683 1294 l 294 1294 l 294 1250 l 683 1250 z m 901 926 l 901 972 l 115 972 l 115 0 l 901 0 l 901 46 l 165 46 l 165 450 l 861 450 l 861 496 l 165 496 l 165 926 z "},"Ę":{"ha":939,"x_min":0,"x_max":0,"o":"m 901 926 l 901 972 l 115 972 l 115 0 l 833 0 b 672 -197 746 -35 672 -101 b 822 -340 672 -275 721 -340 b 886 -332 828 -340 861 -342 l 886 -299 l 881 -300 b 719 -187 803 -308 719 -282 b 900 0 719 -114 768 -44 l 901 0 l 901 46 l 165 46 l 165 450 l 861 450 l 861 496 l 165 496 l 165 926 z "},"F":{"ha":939,"x_min":0,"x_max":0,"o":"m 901 925 l 901 972 l 115 972 l 115 0 l 165 0 l 165 464 l 851 464 l 851 513 l 165 513 l 165 925 z "},"G":{"ha":1151,"x_min":0,"x_max":0,"o":"m 603 425 l 989 425 l 989 182 b 606 26 908 82 772 26 b 131 489 289 26 131 232 b 593 944 131 738 286 944 b 986 668 792 944 928 857 l 1036 668 b 593 993 978 888 815 993 b 81 488 261 993 81 769 b 608 -21 81 200 267 -21 b 1036 165 782 -21 938 39 l 1036 471 l 603 471 z "},"Ğ":{"ha":1151,"x_min":0,"x_max":0,"o":"m 572 1043 b 790 1294 733 1043 808 1154 l 744 1294 b 572 1088 760 1164 703 1088 b 399 1294 442 1088 385 1164 l 353 1294 b 572 1043 335 1154 410 1043 z m 603 425 l 989 425 l 989 182 b 606 26 908 82 772 26 b 131 489 289 26 131 232 b 593 944 131 738 286 944 b 986 668 792 944 928 857 l 1036 668 b 593 993 978 888 815 993 b 81 488 261 993 81 769 b 608 -21 81 200 267 -21 b 1036 165 782 -21 938 39 l 1036 471 l 603 471 z "},"Ģ":{"ha":1151,"x_min":0,"x_max":0,"o":"m 603 425 l 989 425 l 989 182 b 606 26 908 82 772 26 b 131 489 289 26 131 232 b 593 944 131 738 286 944 b 986 668 792 944 928 857 l 1036 668 b 593 993 978 888 815 993 b 81 488 261 993 81 769 b 608 -21 81 200 267 -21 b 1036 165 782 -21 938 39 l 1036 471 l 603 471 z m 494 -289 l 542 -289 l 631 -74 l 583 -74 z "},"Ġ":{"ha":1151,"x_min":0,"x_max":0,"o":"m 572 1185 b 610 1222 599 1185 610 1206 b 572 1260 610 1239 599 1260 b 535 1222 546 1260 535 1239 b 572 1185 535 1206 546 1185 z m 603 425 l 989 425 l 989 182 b 606 26 908 82 772 26 b 131 489 289 26 131 232 b 593 944 131 738 286 944 b 986 668 792 944 928 857 l 1036 668 b 593 993 978 888 815 993 b 81 488 261 993 81 769 b 608 -21 81 200 267 -21 b 1036 165 782 -21 938 39 l 1036 471 l 603 471 z "},"H":{"ha":1083,"x_min":0,"x_max":0,"o":"m 918 972 l 918 476 l 165 476 l 165 972 l 115 972 l 115 0 l 165 0 l 165 429 l 918 429 l 918 0 l 968 0 l 968 972 z "},"Ħ":{"ha":1083,"x_min":0,"x_max":0,"o":"m 918 972 l 918 719 l 165 719 l 165 972 l 115 972 l 115 0 l 165 0 l 165 429 l 918 429 l 918 0 l 968 0 l 968 972 z m 165 476 l 165 669 l 918 669 l 918 476 z "},"I":{"ha":281,"x_min":0,"x_max":0,"o":"m 115 0 l 165 0 l 165 972 l 115 972 z "},"Ĳ":{"ha":1272,"x_min":0,"x_max":0,"o":"m 115 0 l 165 0 l 165 972 l 115 972 z m 760 -21 b 1158 343 1025 -21 1158 79 l 1158 972 l 1108 972 l 1108 343 b 760 28 1108 138 1026 28 b 411 329 493 28 411 135 l 361 329 b 760 -21 361 76 493 -21 z "},"Í":{"ha":281,"x_min":0,"x_max":0,"o":"m 133 1065 l 183 1065 l 299 1294 l 249 1294 z m 115 0 l 165 0 l 165 972 l 115 972 z "},"Ǐ":{"ha":281,"x_min":0,"x_max":0,"o":"m 242 1294 l 142 1096 l 42 1294 l -8 1294 l 107 1065 l 176 1065 l 292 1294 z m 115 0 l 165 0 l 165 972 l 115 972 z "},"Î":{"ha":281,"x_min":0,"x_max":0,"o":"m 176 1296 l 107 1296 l -8 1067 l 42 1067 l 142 1265 l 242 1067 l 292 1067 z m 115 0 l 165 0 l 165 972 l 115 972 z "},"Ï":{"ha":281,"x_min":0,"x_max":0,"o":"m -32 1185 b 6 1222 -6 1185 6 1206 b -32 1260 6 1239 -6 1260 b -69 1222 -58 1260 -69 1239 b -32 1185 -69 1206 -58 1185 z m 314 1185 b 351 1222 339 1185 351 1206 b 314 1260 351 1239 339 1260 b 276 1222 288 1260 276 1239 b 314 1185 276 1206 288 1185 z m 115 0 l 165 0 l 165 972 l 115 972 z "},"İ":{"ha":281,"x_min":0,"x_max":0,"o":"m 142 1185 b 179 1222 168 1185 179 1206 b 142 1260 179 1239 168 1260 b 104 1222 115 1260 104 1239 b 142 1185 104 1206 115 1185 z m 115 0 l 165 0 l 165 972 l 115 972 z "},"Ì":{"ha":281,"x_min":0,"x_max":0,"o":"m 167 1065 l 51 1294 l 1 1294 l 117 1065 z m 115 0 l 165 0 l 165 972 l 115 972 z "},"Ī":{"ha":281,"x_min":0,"x_max":0,"o":"m -53 1250 l 336 1250 l 336 1294 l -53 1294 z m 115 0 l 165 0 l 165 972 l 115 972 z "},"Į":{"ha":281,"x_min":0,"x_max":0,"o":"m 115 972 l 115 7 b -67 -197 19 -25 -67 -94 b 83 -340 -67 -275 -18 -340 b 147 -332 89 -340 122 -342 l 147 -299 l 142 -300 b -19 -187 64 -308 -19 -282 b 161 0 -19 -114 29 -44 l 165 0 l 165 972 z "},"J":{"ha":993,"x_min":0,"x_max":0,"o":"m 479 -21 b 878 343 744 -21 878 79 l 878 972 l 828 972 l 828 343 b 479 28 828 138 746 28 b 131 329 213 28 131 135 l 81 329 b 479 -21 81 76 213 -21 z "},"K":{"ha":1067,"x_min":0,"x_max":0,"o":"m 1014 0 l 579 496 l 978 972 l 918 972 l 164 68 l 164 972 l 115 972 l 115 0 l 164 0 l 550 461 l 950 0 z "},"Ķ":{"ha":1067,"x_min":0,"x_max":0,"o":"m 1014 0 l 579 496 l 978 972 l 918 972 l 164 68 l 164 972 l 115 972 l 115 0 l 164 0 l 550 461 l 950 0 z m 404 -257 l 451 -257 l 540 -42 l 493 -42 z "},"L":{"ha":943,"x_min":0,"x_max":0,"o":"m 165 47 l 165 972 l 115 972 l 115 0 l 863 0 l 863 47 z "},"Ĺ":{"ha":943,"x_min":0,"x_max":0,"o":"m 282 1294 l 232 1294 l 117 1065 l 167 1065 z m 165 47 l 165 972 l 115 972 l 115 0 l 863 0 l 863 47 z "},"Ľ":{"ha":943,"x_min":0,"x_max":0,"o":"m 344 903 l 343 842 b 385 921 354 846 385 878 l 385 925 b 339 983 385 956 369 983 b 297 943 315 983 297 967 b 344 903 297 915 318 901 z m 165 47 l 165 972 l 115 972 l 115 0 l 863 0 l 863 47 z "},"Ļ":{"ha":943,"x_min":0,"x_max":0,"o":"m 165 47 l 165 972 l 115 972 l 115 0 l 863 0 l 863 47 z m 388 -257 l 435 -257 l 524 -42 l 476 -42 z "},"Ł":{"ha":943,"x_min":0,"x_max":0,"o":"m 165 47 l 165 518 l 382 549 l 382 596 l 165 565 l 165 972 l 115 972 l 115 558 l -7 540 l -7 493 l 115 511 l 115 0 l 863 0 l 863 47 z "},"M":{"ha":1250,"x_min":0,"x_max":0,"o":"m 115 0 l 164 0 l 164 904 l 171 904 l 601 1 l 649 1 l 1079 904 l 1086 904 l 1086 0 l 1136 0 l 1136 972 l 1063 972 l 628 69 l 622 69 l 188 972 l 115 972 z "},"N":{"ha":1072,"x_min":0,"x_max":0,"o":"m 115 0 l 165 0 l 165 726 l 164 908 l 171 908 l 894 0 l 957 0 l 957 972 l 907 972 l 907 246 l 908 64 l 901 64 l 178 972 l 115 972 z "},"Ń":{"ha":1072,"x_min":0,"x_max":0,"o":"m 528 1065 l 578 1065 l 693 1294 l 643 1294 z m 115 0 l 165 0 l 165 726 l 164 908 l 171 908 l 894 0 l 957 0 l 957 972 l 907 972 l 907 246 l 908 64 l 901 64 l 178 972 l 115 972 z "},"Ň":{"ha":1072,"x_min":0,"x_max":0,"o":"m 500 1065 l 569 1065 l 685 1294 l 635 1294 l 535 1096 l 435 1294 l 385 1294 z m 907 972 l 907 246 l 908 64 l 901 64 l 178 972 l 115 972 l 115 0 l 165 0 l 165 726 l 164 908 l 171 908 l 894 0 l 957 0 l 957 972 z "},"Ņ":{"ha":1072,"x_min":0,"x_max":0,"o":"m 115 0 l 165 0 l 165 726 l 164 908 l 171 908 l 894 0 l 957 0 l 957 972 l 907 972 l 907 246 l 908 64 l 901 64 l 178 972 l 115 972 z m 461 -257 l 508 -257 l 597 -42 l 550 -42 z "},"Ŋ":{"ha":1072,"x_min":0,"x_max":0,"o":"m 957 972 l 904 972 l 904 64 l 901 64 l 178 972 l 115 972 l 115 0 l 165 0 l 165 726 l 164 908 l 171 908 l 894 0 l 904 0 b 718 -229 904 -90 890 -229 l 672 -229 l 672 -278 l 710 -278 b 957 -3 913 -278 957 -135 z "},"Ñ":{"ha":1072,"x_min":0,"x_max":0,"o":"m 418 1190 b 654 1253 508 1190 569 1253 b 768 1217 678 1253 729 1247 l 768 1264 b 657 1299 738 1292 686 1299 b 421 1236 567 1299 503 1236 b 307 1272 399 1236 346 1240 l 307 1225 b 418 1190 336 1197 388 1190 z m 115 0 l 165 0 l 165 726 l 164 908 l 171 908 l 894 0 l 957 0 l 957 972 l 907 972 l 907 246 l 908 64 l 901 64 l 178 972 l 115 972 z "},"O":{"ha":1175,"x_min":0,"x_max":0,"o":"m 588 -21 b 1094 486 910 -21 1094 210 b 588 993 1094 763 910 993 b 81 486 265 993 81 763 b 588 -21 81 210 265 -21 z m 588 28 b 131 486 286 28 131 238 b 588 944 131 735 286 944 b 1044 486 889 944 1044 735 b 588 28 1044 238 889 28 z "},"Ó":{"ha":1175,"x_min":0,"x_max":0,"o":"m 579 1065 l 629 1065 l 744 1294 l 694 1294 z m 588 -21 b 1094 486 910 -21 1094 210 b 588 993 1094 763 910 993 b 81 486 265 993 81 763 b 588 -21 81 210 265 -21 z m 588 28 b 131 486 286 28 131 238 b 588 944 131 735 286 944 b 1044 486 889 944 1044 735 b 588 28 1044 238 889 28 z "},"Ǒ":{"ha":1175,"x_min":0,"x_max":0,"o":"m 553 1065 l 622 1065 l 738 1294 l 688 1294 l 588 1096 l 488 1294 l 438 1294 z m 588 993 b 81 486 265 993 81 763 b 588 -21 81 210 265 -21 b 1094 486 910 -21 1094 210 b 588 993 1094 763 910 993 z m 588 28 b 131 486 286 28 131 238 b 588 944 131 735 286 944 b 1044 486 889 944 1044 735 b 588 28 1044 238 889 28 z "},"Ô":{"ha":1175,"x_min":0,"x_max":0,"o":"m 588 1265 l 688 1067 l 738 1067 l 622 1296 l 553 1296 l 438 1067 l 488 1067 z m 588 993 b 81 486 265 993 81 763 b 588 -21 81 210 265 -21 b 1094 486 910 -21 1094 210 b 588 993 1094 763 910 993 z m 588 28 b 131 486 286 28 131 238 b 588 944 131 735 286 944 b 1044 486 889 944 1044 735 b 588 28 1044 238 889 28 z "},"Ö":{"ha":1175,"x_min":0,"x_max":0,"o":"m 414 1185 b 451 1222 440 1185 451 1206 b 414 1260 451 1239 440 1260 b 376 1222 388 1260 376 1239 b 414 1185 376 1206 388 1185 z m 760 1185 b 797 1222 785 1185 797 1206 b 760 1260 797 1239 785 1260 b 722 1222 733 1260 722 1239 b 760 1185 722 1206 733 1185 z m 588 -21 b 1094 486 910 -21 1094 210 b 588 993 1094 763 910 993 b 81 486 265 993 81 763 b 588 -21 81 210 265 -21 z m 588 28 b 131 486 286 28 131 238 b 588 944 131 735 286 944 b 1044 486 889 944 1044 735 b 588 28 1044 238 889 28 z "},"Ò":{"ha":1175,"x_min":0,"x_max":0,"o":"m 613 1065 l 497 1294 l 447 1294 l 563 1065 z m 588 -21 b 1094 486 910 -21 1094 210 b 588 993 1094 763 910 993 b 81 486 265 993 81 763 b 588 -21 81 210 265 -21 z m 588 28 b 131 486 286 28 131 238 b 588 944 131 735 286 944 b 1044 486 889 944 1044 735 b 588 28 1044 238 889 28 z "},"Ő":{"ha":1175,"x_min":0,"x_max":0,"o":"m 457 1038 l 507 1038 l 622 1267 l 572 1267 z m 606 1038 l 656 1038 l 771 1267 l 721 1267 z m 588 -21 b 1094 486 910 -21 1094 210 b 588 993 1094 763 910 993 b 81 486 265 993 81 763 b 588 -21 81 210 265 -21 z m 588 28 b 131 486 286 28 131 238 b 588 944 131 735 286 944 b 1044 486 889 944 1044 735 b 588 28 1044 238 889 28 z "},"Ō":{"ha":1175,"x_min":0,"x_max":0,"o":"m 394 1250 l 783 1250 l 783 1294 l 394 1294 z m 588 -21 b 1094 486 910 -21 1094 210 b 588 993 1094 763 910 993 b 81 486 265 993 81 763 b 588 -21 81 210 265 -21 z m 588 28 b 131 486 286 28 131 238 b 588 944 131 735 286 944 b 1044 486 889 944 1044 735 b 588 28 1044 238 889 28 z "},"Ø":{"ha":1175,"x_min":0,"x_max":0,"o":"m 971 832 l 1053 914 l 1017 949 l 936 868 b 588 993 851 946 733 993 b 81 486 265 993 81 763 b 206 138 81 353 124 229 l 125 57 l 163 24 l 240 101 b 588 -21 326 25 443 -21 b 1094 486 910 -21 1094 210 b 971 832 1094 619 1051 742 z m 131 486 b 588 944 131 735 286 944 b 903 835 722 944 828 903 l 239 171 b 131 486 167 254 131 365 z m 588 28 b 275 136 454 28 350 68 l 938 799 b 1044 486 1008 717 1044 606 b 588 28 1044 238 889 28 z "},"Õ":{"ha":1175,"x_min":0,"x_max":0,"o":"m 469 1190 b 706 1253 560 1190 621 1253 b 819 1217 729 1253 781 1247 l 819 1264 b 708 1299 789 1292 738 1299 b 472 1236 618 1299 554 1236 b 358 1272 450 1236 397 1240 l 358 1225 b 469 1190 388 1197 439 1190 z m 588 -21 b 1094 486 910 -21 1094 210 b 588 993 1094 763 910 993 b 81 486 265 993 81 763 b 588 -21 81 210 265 -21 z m 588 28 b 131 486 286 28 131 238 b 588 944 131 735 286 944 b 1044 486 889 944 1044 735 b 588 28 1044 238 889 28 z "},"Œ":{"ha":1872,"x_min":0,"x_max":0,"o":"m 1833 926 l 1833 972 l 1047 972 l 1047 714 b 588 993 974 879 814 993 b 81 486 265 993 81 763 b 588 -21 81 210 265 -21 b 1047 258 814 -21 974 93 l 1047 0 l 1833 0 l 1833 46 l 1099 46 l 1099 450 l 1794 450 l 1794 496 l 1099 496 l 1099 926 z m 588 28 b 131 486 286 28 131 238 b 588 944 131 735 286 944 b 1044 486 889 944 1044 735 b 588 28 1044 238 889 28 z "},"P":{"ha":1054,"x_min":0,"x_max":0,"o":"m 594 972 l 115 972 l 115 0 l 165 0 l 165 288 l 594 288 b 968 631 854 288 968 422 b 594 972 968 842 854 972 z m 581 336 l 165 336 l 165 925 l 581 925 b 918 631 774 925 918 867 b 581 336 918 399 774 336 z "},"Þ":{"ha":1050,"x_min":0,"x_max":0,"o":"m 574 840 l 168 840 l 168 972 l 115 972 l 115 0 l 168 0 l 168 132 l 574 132 b 963 486 868 132 963 267 b 574 840 963 706 868 840 z m 556 181 l 168 181 l 168 792 l 556 792 b 910 486 775 792 910 738 b 556 181 910 235 775 181 z "},"Q":{"ha":1175,"x_min":0,"x_max":0,"o":"m 1094 486 b 588 993 1094 763 910 993 b 81 486 265 993 81 763 b 565 -21 81 217 257 -10 l 565 -146 l 613 -146 l 613 -21 b 1094 486 919 -8 1094 217 z m 613 28 l 613 306 l 565 306 l 565 28 b 131 486 278 39 131 243 b 588 944 131 735 286 944 b 1044 486 889 944 1044 735 b 613 28 1044 244 897 39 z "},"R":{"ha":1031,"x_min":0,"x_max":0,"o":"m 968 676 b 633 972 968 842 876 972 l 115 972 l 115 0 l 165 0 l 165 381 l 633 381 b 674 382 647 381 661 381 l 901 0 l 958 0 l 725 388 b 968 676 900 417 968 532 z m 615 428 l 165 428 l 165 925 l 615 925 b 921 676 794 925 921 872 b 615 428 921 476 794 428 z "},"Ŕ":{"ha":1031,"x_min":0,"x_max":0,"o":"m 689 1294 l 639 1294 l 524 1065 l 574 1065 z m 968 676 b 633 972 968 842 876 972 l 115 972 l 115 0 l 165 0 l 165 381 l 633 381 b 674 382 647 381 661 381 l 901 0 l 958 0 l 725 388 b 968 676 900 417 968 532 z m 615 428 l 165 428 l 165 925 l 615 925 b 921 676 794 925 921 872 b 615 428 921 476 794 428 z "},"Ř":{"ha":1031,"x_min":0,"x_max":0,"o":"m 497 1065 l 567 1065 l 682 1294 l 632 1294 l 532 1096 l 432 1294 l 382 1294 z m 968 676 b 633 972 968 842 876 972 l 115 972 l 115 0 l 165 0 l 165 381 l 633 381 b 674 382 647 381 661 381 l 901 0 l 958 0 l 725 388 b 968 676 900 417 968 532 z m 615 428 l 165 428 l 165 925 l 615 925 b 921 676 794 925 921 872 b 615 428 921 476 794 428 z "},"Ŗ":{"ha":1031,"x_min":0,"x_max":0,"o":"m 968 676 b 633 972 968 842 876 972 l 115 972 l 115 0 l 165 0 l 165 381 l 633 381 b 674 382 647 381 661 381 l 901 0 l 958 0 l 725 388 b 968 676 900 417 968 532 z m 615 428 l 165 428 l 165 925 l 615 925 b 921 676 794 925 921 872 b 615 428 921 476 794 428 z m 415 -257 l 463 -257 l 551 -42 l 504 -42 z "},"S":{"ha":975,"x_min":0,"x_max":0,"o":"m 472 -21 l 474 -21 b 896 261 781 -21 896 92 b 572 522 896 435 789 499 l 475 533 b 153 738 281 554 153 589 b 482 949 153 890 292 949 b 829 756 665 949 806 899 l 876 756 b 489 993 858 951 657 993 b 101 740 218 993 101 896 b 440 489 101 571 228 513 l 539 476 b 846 265 740 456 846 418 b 488 26 846 78 683 26 b 128 219 308 26 157 64 l 81 219 b 472 -21 99 -3 356 -21 z "},"Ś":{"ha":975,"x_min":0,"x_max":0,"o":"m 483 1065 l 533 1065 l 649 1294 l 599 1294 z m 472 -21 l 474 -21 b 896 261 781 -21 896 92 b 572 522 896 435 789 499 l 475 533 b 153 738 281 554 153 589 b 482 949 153 890 292 949 b 829 756 665 949 806 899 l 876 756 b 489 993 858 951 657 993 b 101 740 218 993 101 896 b 440 489 101 571 228 513 l 539 476 b 846 265 740 456 846 418 b 488 26 846 78 683 26 b 128 219 308 26 157 64 l 81 219 b 472 -21 99 -3 356 -21 z "},"Š":{"ha":975,"x_min":0,"x_max":0,"o":"m 457 1065 l 526 1065 l 642 1294 l 592 1294 l 492 1096 l 392 1294 l 342 1294 z m 572 522 l 475 533 b 153 738 281 554 153 589 b 482 949 153 890 292 949 b 829 756 665 949 806 899 l 876 756 b 489 993 858 951 657 993 b 101 740 218 993 101 896 b 440 489 101 571 228 513 l 539 476 b 846 265 740 456 846 418 b 488 26 846 78 683 26 b 128 219 308 26 157 64 l 81 219 b 472 -21 99 -3 356 -21 l 474 -21 b 896 261 781 -21 896 92 b 572 522 896 435 789 499 z "},"Ş":{"ha":975,"x_min":0,"x_max":0,"o":"m 896 261 b 572 522 896 435 789 499 l 475 533 b 153 738 281 554 153 589 b 482 949 153 890 292 949 b 829 756 665 949 806 899 l 876 756 b 489 993 858 951 657 993 b 101 740 218 993 101 896 b 440 489 101 571 228 513 l 539 476 b 846 265 740 456 846 418 b 488 26 846 78 683 26 b 128 219 308 26 157 64 l 81 219 b 444 -21 97 14 319 -17 l 386 -119 l 496 -119 b 578 -204 556 -119 578 -161 b 489 -281 578 -247 554 -281 b 422 -257 454 -281 436 -267 l 404 -292 b 494 -326 421 -312 453 -326 b 625 -201 568 -326 625 -281 b 497 -76 625 -125 574 -76 b 461 -79 483 -76 472 -78 l 494 -21 b 896 261 786 -15 896 96 z "},"Ș":{"ha":975,"x_min":0,"x_max":0,"o":"m 472 -21 l 474 -21 b 896 261 781 -21 896 92 b 572 522 896 435 789 499 l 475 533 b 153 738 281 554 153 589 b 482 949 153 890 292 949 b 829 756 665 949 806 899 l 876 756 b 489 993 858 951 657 993 b 101 740 218 993 101 896 b 440 489 101 571 228 513 l 539 476 b 846 265 740 456 846 418 b 488 26 846 78 683 26 b 128 219 308 26 157 64 l 81 219 b 472 -21 99 -3 356 -21 z m 376 -257 l 424 -257 l 513 -42 l 465 -42 z "},"ẞ":{"ha":938,"x_min":0,"x_max":0,"o":"m 533 607 l 458 607 l 778 922 l 778 972 l 310 972 b 115 785 181 972 115 906 l 115 0 l 165 0 l 165 783 b 315 924 165 874 203 924 l 715 924 l 386 600 l 386 560 l 515 560 b 815 304 713 560 815 507 b 508 49 815 101 713 49 l 386 49 l 386 0 l 535 0 b 865 306 744 0 865 90 b 533 607 865 572 682 607 z "},"T":{"ha":986,"x_min":0,"x_max":0,"o":"m 928 972 l 57 972 l 57 925 l 468 925 l 468 0 l 518 0 l 518 925 l 928 925 z "},"Ŧ":{"ha":986,"x_min":0,"x_max":0,"o":"m 928 925 l 928 972 l 57 972 l 57 925 l 468 925 l 468 569 l 104 569 l 104 521 l 468 521 l 468 0 l 518 0 l 518 521 l 885 521 l 885 569 l 518 569 l 518 925 z "},"Ť":{"ha":986,"x_min":0,"x_max":0,"o":"m 460 1065 l 529 1065 l 644 1294 l 594 1294 l 494 1096 l 394 1294 l 344 1294 z m 928 972 l 57 972 l 57 925 l 468 925 l 468 0 l 518 0 l 518 925 l 928 925 z "},"Ţ":{"ha":986,"x_min":0,"x_max":0,"o":"m 928 925 l 928 972 l 57 972 l 57 925 l 468 925 l 468 15 l 389 -119 l 499 -119 b 581 -204 558 -119 581 -161 b 492 -281 581 -247 557 -281 b 425 -257 457 -281 439 -267 l 407 -292 b 497 -326 424 -312 456 -326 b 628 -201 571 -326 628 -281 b 500 -76 628 -125 576 -76 b 464 -79 486 -76 475 -78 l 510 0 l 518 0 l 518 15 l 521 19 l 518 19 l 518 925 z "},"Ț":{"ha":986,"x_min":0,"x_max":0,"o":"m 928 972 l 57 972 l 57 925 l 468 925 l 468 0 l 518 0 l 518 925 l 928 925 z m 343 -257 l 390 -257 l 479 -42 l 432 -42 z "},"U":{"ha":1065,"x_min":0,"x_max":0,"o":"m 533 -21 b 951 371 796 -21 951 108 l 951 972 l 900 972 l 900 368 b 533 28 900 156 792 28 b 165 368 274 28 165 156 l 165 972 l 115 972 l 115 371 b 533 -21 115 108 271 -21 z "},"Ú":{"ha":1065,"x_min":0,"x_max":0,"o":"m 525 1065 l 575 1065 l 690 1294 l 640 1294 z m 533 -21 b 951 371 796 -21 951 108 l 951 972 l 900 972 l 900 368 b 533 28 900 156 792 28 b 165 368 274 28 165 156 l 165 972 l 115 972 l 115 371 b 533 -21 115 108 271 -21 z "},"Ŭ":{"ha":1065,"x_min":0,"x_max":0,"o":"m 533 1043 b 751 1294 694 1043 769 1154 l 706 1294 b 533 1088 721 1164 664 1088 b 360 1294 403 1088 346 1164 l 314 1294 b 533 1043 296 1154 371 1043 z m 533 -21 b 951 371 796 -21 951 108 l 951 972 l 900 972 l 900 368 b 533 28 900 156 792 28 b 165 368 274 28 165 156 l 165 972 l 115 972 l 115 371 b 533 -21 115 108 271 -21 z "},"Ǔ":{"ha":1065,"x_min":0,"x_max":0,"o":"m 499 1065 l 568 1065 l 683 1294 l 633 1294 l 533 1096 l 433 1294 l 383 1294 z m 900 972 l 900 368 b 533 28 900 156 792 28 b 165 368 274 28 165 156 l 165 972 l 115 972 l 115 371 b 533 -21 115 108 271 -21 b 951 371 796 -21 951 108 l 951 972 z "},"Û":{"ha":1065,"x_min":0,"x_max":0,"o":"m 533 1265 l 633 1067 l 683 1067 l 568 1296 l 499 1296 l 383 1067 l 433 1067 z m 900 972 l 900 368 b 533 28 900 156 792 28 b 165 368 274 28 165 156 l 165 972 l 115 972 l 115 371 b 533 -21 115 108 271 -21 b 951 371 796 -21 951 108 l 951 972 z "},"Ü":{"ha":1065,"x_min":0,"x_max":0,"o":"m 358 1185 b 396 1222 385 1185 396 1206 b 358 1260 396 1239 385 1260 b 321 1222 332 1260 321 1239 b 358 1185 321 1206 332 1185 z m 704 1185 b 742 1222 729 1185 742 1206 b 704 1260 742 1239 729 1260 b 667 1222 678 1260 667 1239 b 704 1185 667 1206 678 1185 z m 533 -21 b 951 371 796 -21 951 108 l 951 972 l 900 972 l 900 368 b 533 28 900 156 792 28 b 165 368 274 28 165 156 l 165 972 l 115 972 l 115 371 b 533 -21 115 108 271 -21 z "},"Ù":{"ha":1065,"x_min":0,"x_max":0,"o":"m 558 1065 l 443 1294 l 393 1294 l 508 1065 z m 533 -21 b 951 371 796 -21 951 108 l 951 972 l 900 972 l 900 368 b 533 28 900 156 792 28 b 165 368 274 28 165 156 l 165 972 l 115 972 l 115 371 b 533 -21 115 108 271 -21 z "},"Ű":{"ha":1065,"x_min":0,"x_max":0,"o":"m 403 1038 l 453 1038 l 568 1267 l 518 1267 z m 551 1038 l 601 1038 l 717 1267 l 667 1267 z m 533 -21 b 951 371 796 -21 951 108 l 951 972 l 900 972 l 900 368 b 533 28 900 156 792 28 b 165 368 274 28 165 156 l 165 972 l 115 972 l 115 371 b 533 -21 115 108 271 -21 z "},"Ū":{"ha":1065,"x_min":0,"x_max":0,"o":"m 339 1250 l 728 1250 l 728 1294 l 339 1294 z m 533 -21 b 951 371 796 -21 951 108 l 951 972 l 900 972 l 900 368 b 533 28 900 156 792 28 b 165 368 274 28 165 156 l 165 972 l 115 972 l 115 371 b 533 -21 115 108 271 -21 z "},"Ų":{"ha":1065,"x_min":0,"x_max":0,"o":"m 900 972 l 900 368 b 533 28 900 156 792 28 b 165 368 274 28 165 156 l 165 972 l 115 972 l 115 371 b 533 -21 115 108 271 -21 b 592 -18 553 -21 572 -19 b 469 -197 522 -57 469 -117 b 619 -340 469 -275 518 -340 b 683 -332 625 -340 658 -342 l 683 -299 l 678 -300 b 517 -187 600 -308 517 -282 b 694 -1 517 -114 564 -46 b 951 371 858 44 951 168 l 951 972 z "},"Ů":{"ha":1065,"x_min":0,"x_max":0,"o":"m 532 1090 b 647 1203 606 1090 647 1144 b 532 1317 647 1263 606 1317 b 418 1203 460 1317 418 1263 b 532 1090 418 1144 460 1090 z m 532 1133 b 461 1203 486 1133 461 1164 b 532 1274 461 1243 486 1274 b 604 1203 579 1274 604 1243 b 532 1133 604 1164 579 1133 z m 533 -21 b 951 371 796 -21 951 108 l 951 972 l 900 972 l 900 368 b 533 28 900 156 792 28 b 165 368 274 28 165 156 l 165 972 l 115 972 l 115 371 b 533 -21 115 108 271 -21 z "},"V":{"ha":1053,"x_min":0,"x_max":0,"o":"m 947 972 l 526 53 l 106 972 l 53 972 l 499 0 l 554 0 l 1001 972 z "},"W":{"ha":1658,"x_min":0,"x_max":0,"o":"m 1553 972 l 1231 61 l 857 972 l 801 972 l 428 61 l 104 972 l 53 972 l 399 0 l 453 0 l 829 911 l 1204 0 l 1260 0 l 1606 972 z "},"Ẃ":{"ha":1658,"x_min":0,"x_max":0,"o":"m 985 1294 l 935 1294 l 819 1065 l 869 1065 z m 1553 972 l 1231 61 l 857 972 l 801 972 l 428 61 l 104 972 l 53 972 l 399 0 l 453 0 l 829 911 l 1204 0 l 1260 0 l 1606 972 z "},"Ŵ":{"ha":1658,"x_min":0,"x_max":0,"o":"m 828 1265 l 928 1067 l 978 1067 l 863 1296 l 793 1296 l 678 1067 l 728 1067 z m 1553 972 l 1231 61 l 857 972 l 801 972 l 428 61 l 104 972 l 53 972 l 399 0 l 453 0 l 829 911 l 1204 0 l 1260 0 l 1606 972 z "},"Ẅ":{"ha":1658,"x_min":0,"x_max":0,"o":"m 654 1185 b 692 1222 681 1185 692 1206 b 654 1260 692 1239 681 1260 b 617 1222 628 1260 617 1239 b 654 1185 617 1206 628 1185 z m 1000 1185 b 1038 1222 1025 1185 1038 1206 b 1000 1260 1038 1239 1025 1260 b 963 1222 974 1260 963 1239 b 1000 1185 963 1206 974 1185 z m 1553 972 l 1231 61 l 857 972 l 801 972 l 428 61 l 104 972 l 53 972 l 399 0 l 453 0 l 829 911 l 1204 0 l 1260 0 l 1606 972 z "},"Ẁ":{"ha":1658,"x_min":0,"x_max":0,"o":"m 853 1065 l 738 1294 l 688 1294 l 803 1065 z m 1553 972 l 1231 61 l 857 972 l 801 972 l 428 61 l 104 972 l 53 972 l 399 0 l 453 0 l 829 911 l 1204 0 l 1260 0 l 1606 972 z "},"X":{"ha":1019,"x_min":0,"x_max":0,"o":"m 53 0 l 115 0 l 510 456 l 904 0 l 968 0 l 546 486 l 961 972 l 899 972 l 510 517 l 122 972 l 58 972 l 475 486 z "},"Y":{"ha":1046,"x_min":0,"x_max":0,"o":"m 994 972 l 938 972 l 525 290 l 521 290 l 108 972 l 53 972 l 500 238 l 500 0 l 550 0 l 550 242 z "},"Ý":{"ha":1046,"x_min":0,"x_max":0,"o":"m 681 1294 l 631 1294 l 515 1065 l 565 1065 z m 994 972 l 938 972 l 525 290 l 521 290 l 108 972 l 53 972 l 500 238 l 500 0 l 550 0 l 550 242 z "},"Ŷ":{"ha":1046,"x_min":0,"x_max":0,"o":"m 524 1265 l 624 1067 l 674 1067 l 558 1296 l 489 1296 l 374 1067 l 424 1067 z m 994 972 l 938 972 l 525 290 l 521 290 l 108 972 l 53 972 l 500 238 l 500 0 l 550 0 l 550 242 z "},"Ÿ":{"ha":1046,"x_min":0,"x_max":0,"o":"m 349 1185 b 386 1222 375 1185 386 1206 b 349 1260 386 1239 375 1260 b 311 1222 322 1260 311 1239 b 349 1185 311 1206 322 1185 z m 694 1185 b 732 1222 719 1185 732 1206 b 694 1260 732 1239 719 1260 b 657 1222 668 1260 657 1239 b 694 1185 657 1206 668 1185 z m 994 972 l 938 972 l 525 290 l 521 290 l 108 972 l 53 972 l 500 238 l 500 0 l 550 0 l 550 242 z "},"Ỳ":{"ha":1046,"x_min":0,"x_max":0,"o":"m 549 1065 l 433 1294 l 383 1294 l 499 1065 z m 994 972 l 938 972 l 525 290 l 521 290 l 108 972 l 53 972 l 500 238 l 500 0 l 550 0 l 550 242 z "},"Z":{"ha":1074,"x_min":0,"x_max":0,"o":"m 115 0 l 958 0 l 958 46 l 178 46 l 958 926 l 958 972 l 128 972 l 128 926 l 896 926 l 115 46 z "},"Ź":{"ha":1074,"x_min":0,"x_max":0,"o":"m 525 1065 l 575 1065 l 690 1294 l 640 1294 z m 115 0 l 958 0 l 958 46 l 178 46 l 958 926 l 958 972 l 128 972 l 128 926 l 896 926 l 115 46 z "},"Ž":{"ha":1074,"x_min":0,"x_max":0,"o":"m 499 1065 l 568 1065 l 683 1294 l 633 1294 l 533 1096 l 433 1294 l 383 1294 z m 958 972 l 128 972 l 128 926 l 896 926 l 115 46 l 115 0 l 958 0 l 958 46 l 178 46 l 958 926 z "},"Ż":{"ha":1074,"x_min":0,"x_max":0,"o":"m 533 1185 b 571 1222 560 1185 571 1206 b 533 1260 571 1239 560 1260 b 496 1222 507 1260 496 1239 b 533 1185 496 1206 507 1185 z m 115 0 l 958 0 l 958 46 l 178 46 l 958 926 l 958 972 l 128 972 l 128 926 l 896 926 l 115 46 z "},"a":{"ha":857,"x_min":0,"x_max":0,"o":"m 425 743 b 126 564 283 743 129 713 l 175 564 b 432 699 178 639 232 699 b 699 514 635 699 699 632 l 699 394 l 297 394 b 74 197 128 394 74 303 b 336 -21 74 65 153 -21 b 700 107 475 -21 599 24 l 697 90 l 704 0 l 749 0 l 749 519 b 425 743 749 663 661 743 z m 354 25 l 319 25 b 121 197 189 25 121 88 b 303 350 121 306 189 350 l 699 350 l 699 168 b 354 25 667 110 510 25 z "},"á":{"ha":857,"x_min":0,"x_max":0,"o":"m 613 1044 l 563 1044 l 447 815 l 497 815 z m 425 743 b 126 564 283 743 129 713 l 175 564 b 432 699 178 639 232 699 b 699 514 635 699 699 632 l 699 394 l 297 394 b 74 197 128 394 74 303 b 336 -21 74 65 153 -21 b 700 107 475 -21 599 24 l 697 90 l 704 0 l 749 0 l 749 519 b 425 743 749 663 661 743 z m 354 25 l 319 25 b 121 197 189 25 121 88 b 303 350 121 306 189 350 l 699 350 l 699 168 b 354 25 667 110 510 25 z "},"ă":{"ha":857,"x_min":0,"x_max":0,"o":"m 456 793 b 674 1044 617 793 692 904 l 628 1044 b 456 838 643 914 586 838 b 282 1044 325 838 268 914 l 236 1044 b 456 793 218 904 293 793 z m 425 743 b 126 564 283 743 129 713 l 175 564 b 432 699 178 639 232 699 b 699 514 635 699 699 632 l 699 394 l 297 394 b 74 197 128 394 74 303 b 336 -21 74 65 153 -21 b 700 107 475 -21 599 24 l 697 90 l 704 0 l 749 0 l 749 519 b 425 743 749 663 661 743 z m 354 25 l 319 25 b 121 197 189 25 121 88 b 303 350 121 306 189 350 l 699 350 l 699 168 b 354 25 667 110 510 25 z "},"ǎ":{"ha":857,"x_min":0,"x_max":0,"o":"m 419 815 l 489 815 l 604 1044 l 554 1044 l 454 846 l 354 1044 l 304 1044 z m 425 743 b 126 564 283 743 129 713 l 175 564 b 432 699 178 639 232 699 b 699 514 635 699 699 632 l 699 394 l 297 394 b 74 197 128 394 74 303 b 336 -21 74 65 153 -21 b 700 107 475 -21 599 24 l 697 90 l 704 0 l 749 0 l 749 519 b 425 743 749 663 661 743 z m 354 25 l 319 25 b 121 197 189 25 121 88 b 303 350 121 306 189 350 l 699 350 l 699 168 b 354 25 667 110 510 25 z "},"â":{"ha":857,"x_min":0,"x_max":0,"o":"m 454 1015 l 554 817 l 604 817 l 489 1046 l 419 1046 l 304 817 l 354 817 z m 425 743 b 126 564 283 743 129 713 l 175 564 b 432 699 178 639 232 699 b 699 514 635 699 699 632 l 699 394 l 297 394 b 74 197 128 394 74 303 b 336 -21 74 65 153 -21 b 700 107 475 -21 599 24 l 697 90 l 704 0 l 749 0 l 749 519 b 425 743 749 663 661 743 z m 354 25 l 319 25 b 121 197 189 25 121 88 b 303 350 121 306 189 350 l 699 350 l 699 168 b 354 25 667 110 510 25 z "},"ä":{"ha":857,"x_min":0,"x_max":0,"o":"m 281 935 b 318 972 307 935 318 956 b 281 1010 318 989 307 1010 b 243 972 254 1010 243 989 b 281 935 243 956 254 935 z m 626 935 b 664 972 651 935 664 956 b 626 1010 664 989 651 1010 b 589 972 600 1010 589 989 b 626 935 589 956 600 935 z m 425 743 b 126 564 283 743 129 713 l 175 564 b 432 699 178 639 232 699 b 699 514 635 699 699 632 l 699 394 l 297 394 b 74 197 128 394 74 303 b 336 -21 74 65 153 -21 b 700 107 475 -21 599 24 l 697 90 l 704 0 l 749 0 l 749 519 b 425 743 749 663 661 743 z m 354 25 l 319 25 b 121 197 189 25 121 88 b 303 350 121 306 189 350 l 699 350 l 699 168 b 354 25 667 110 510 25 z "},"à":{"ha":857,"x_min":0,"x_max":0,"o":"m 479 815 l 364 1044 l 314 1044 l 429 815 z m 425 743 b 126 564 283 743 129 713 l 175 564 b 432 699 178 639 232 699 b 699 514 635 699 699 632 l 699 394 l 297 394 b 74 197 128 394 74 303 b 336 -21 74 65 153 -21 b 700 107 475 -21 599 24 l 697 90 l 704 0 l 749 0 l 749 519 b 425 743 749 663 661 743 z m 354 25 l 319 25 b 121 197 189 25 121 88 b 303 350 121 306 189 350 l 699 350 l 699 168 b 354 25 667 110 510 25 z "},"ā":{"ha":857,"x_min":0,"x_max":0,"o":"m 650 1044 l 261 1044 l 261 1000 l 650 1000 z m 425 743 b 126 564 283 743 129 713 l 175 564 b 432 699 178 639 232 699 b 699 514 635 699 699 632 l 699 394 l 297 394 b 74 197 128 394 74 303 b 336 -21 74 65 153 -21 b 700 107 475 -21 599 24 l 697 90 l 704 0 l 749 0 l 749 519 b 425 743 749 663 661 743 z m 354 25 l 319 25 b 121 197 189 25 121 88 b 303 350 121 306 189 350 l 699 350 l 699 168 b 354 25 667 110 510 25 z "},"ą":{"ha":857,"x_min":0,"x_max":0,"o":"m 425 743 b 126 564 283 743 129 713 l 175 564 b 432 699 178 639 232 699 b 699 514 635 699 699 632 l 699 394 l 297 394 b 74 197 128 394 74 303 b 336 -21 74 65 153 -21 b 700 107 475 -21 599 24 l 697 90 l 704 8 l 703 8 b 518 -197 606 -24 518 -93 b 668 -340 518 -275 567 -340 b 732 -332 674 -340 707 -342 l 732 -299 l 726 -300 b 565 -187 649 -308 565 -282 b 746 0 565 -114 614 -44 l 749 0 l 749 519 b 425 743 749 663 661 743 z m 354 25 l 319 25 b 121 197 189 25 121 88 b 303 350 121 306 189 350 l 699 350 l 699 168 b 354 25 667 110 510 25 z "},"å":{"ha":857,"x_min":0,"x_max":0,"o":"m 454 840 b 569 953 528 840 569 894 b 454 1067 569 1013 528 1067 b 340 953 382 1067 340 1013 b 454 840 340 894 382 840 z m 454 1024 b 526 953 501 1024 526 993 b 454 883 526 914 501 883 b 383 953 408 883 383 914 b 454 1024 383 993 408 1024 z m 425 743 b 126 564 283 743 129 713 l 175 564 b 432 699 178 639 232 699 b 699 514 635 699 699 632 l 699 394 l 297 394 b 74 197 128 394 74 303 b 336 -21 74 65 153 -21 b 700 107 475 -21 599 24 l 697 90 l 704 0 l 749 0 l 749 519 b 425 743 749 663 661 743 z m 354 25 l 319 25 b 121 197 189 25 121 88 b 303 350 121 306 189 350 l 699 350 l 699 168 b 354 25 667 110 510 25 z "},"ã":{"ha":857,"x_min":0,"x_max":0,"o":"m 574 1003 b 688 967 597 1003 649 997 l 688 1014 b 576 1049 657 1042 606 1049 b 340 986 486 1049 422 986 b 226 1022 318 986 265 990 l 226 975 b 338 940 256 947 307 940 b 574 1003 428 940 489 1003 z m 425 743 b 126 564 283 743 129 713 l 175 564 b 432 699 178 639 232 699 b 699 514 635 699 699 632 l 699 394 l 297 394 b 74 197 128 394 74 303 b 336 -21 74 65 153 -21 b 700 107 475 -21 599 24 l 697 90 l 704 0 l 749 0 l 749 519 b 425 743 749 663 661 743 z m 354 25 l 319 25 b 121 197 189 25 121 88 b 303 350 121 306 189 350 l 699 350 l 699 168 b 354 25 667 110 510 25 z "},"æ":{"ha":1521,"x_min":0,"x_max":0,"o":"m 1078 743 b 740 550 910 743 797 664 b 433 743 729 672 646 743 b 128 564 293 743 143 713 l 175 564 b 431 699 192 628 213 699 b 699 513 638 699 699 633 l 699 372 l 318 372 b 74 179 133 372 74 278 b 328 -21 74 65 153 -21 b 721 197 536 -21 663 79 l 729 197 b 1086 -21 783 68 906 -21 b 1414 163 1213 -21 1340 13 l 1364 163 b 1096 22 1306 60 1210 22 b 749 325 882 22 763 146 l 1449 325 b 1078 743 1461 599 1306 743 z m 747 368 b 1078 697 750 561 864 697 b 1403 368 1274 697 1400 583 z m 329 25 b 122 182 192 25 122 79 b 311 326 122 264 176 326 l 699 326 l 699 276 b 329 25 682 161 551 25 z "},"b":{"ha":946,"x_min":0,"x_max":0,"o":"m 493 744 b 154 538 317 744 204 654 l 157 586 l 157 986 l 108 986 l 108 0 l 157 0 l 157 179 b 493 -21 210 63 326 -21 b 872 361 719 -21 872 139 b 493 744 872 585 719 744 z m 489 25 b 154 361 282 25 154 168 b 489 697 154 554 282 697 b 825 361 703 697 825 554 b 489 25 825 168 703 25 z "},"c":{"ha":874,"x_min":0,"x_max":0,"o":"m 463 -21 b 800 224 642 -21 758 68 l 754 224 b 463 25 714 89 608 25 b 119 361 244 25 119 169 b 463 697 119 553 244 697 b 754 499 608 697 714 633 l 800 499 b 463 743 764 654 642 743 b 74 361 208 743 76 567 b 463 -21 69 156 208 -21 z "},"ć":{"ha":874,"x_min":0,"x_max":0,"o":"m 432 815 l 482 815 l 597 1044 l 547 1044 z m 463 -21 b 800 224 642 -21 758 68 l 754 224 b 463 25 714 89 608 25 b 119 361 244 25 119 169 b 463 697 119 553 244 697 b 754 499 608 697 714 633 l 800 499 b 463 743 764 654 642 743 b 74 361 208 743 76 567 b 463 -21 69 156 208 -21 z "},"č":{"ha":874,"x_min":0,"x_max":0,"o":"m 404 815 l 474 815 l 589 1044 l 539 1044 l 439 846 l 339 1044 l 289 1044 z m 463 25 b 119 361 244 25 119 169 b 463 697 119 553 244 697 b 754 499 608 697 714 633 l 800 499 b 463 743 764 654 642 743 b 74 361 208 743 76 567 b 463 -21 69 156 208 -21 b 800 224 642 -21 758 68 l 754 224 b 463 25 714 89 608 25 z "},"ç":{"ha":874,"x_min":0,"x_max":0,"o":"m 463 25 b 119 361 244 25 119 169 b 463 697 119 553 244 697 b 754 499 608 697 714 633 l 800 499 b 463 743 764 654 642 743 b 74 361 208 743 76 567 b 400 -17 69 172 186 10 l 340 -119 l 450 -119 b 532 -204 510 -119 532 -161 b 443 -281 532 -247 508 -281 b 376 -257 408 -281 390 -267 l 358 -292 b 449 -326 375 -312 407 -326 b 579 -201 522 -326 579 -281 b 451 -76 579 -125 528 -76 b 415 -79 438 -76 426 -78 l 449 -21 l 463 -21 b 800 224 642 -21 758 68 l 754 224 b 463 25 714 89 608 25 z "},"ċ":{"ha":874,"x_min":0,"x_max":0,"o":"m 440 935 b 478 972 467 935 478 956 b 440 1010 478 989 467 1010 b 403 972 414 1010 403 989 b 440 935 403 956 414 935 z m 463 -21 b 800 224 642 -21 758 68 l 754 224 b 463 25 714 89 608 25 b 119 361 244 25 119 169 b 463 697 119 553 244 697 b 754 499 608 697 714 633 l 800 499 b 463 743 764 654 642 743 b 74 361 208 743 76 567 b 463 -21 69 156 208 -21 z "},"d":{"ha":946,"x_min":0,"x_max":0,"o":"m 788 986 l 788 586 l 792 538 b 453 744 742 654 628 744 b 74 361 226 744 74 585 b 453 -21 74 139 226 -21 b 788 176 617 -21 733 61 l 789 0 l 838 0 l 838 986 z m 457 25 b 119 361 243 25 119 168 b 457 697 119 554 243 697 b 790 361 664 697 790 554 b 457 25 790 168 664 25 z "},"ð":{"ha":917,"x_min":0,"x_max":0,"o":"m 669 767 l 536 931 l 753 931 l 753 972 l 503 972 l 413 1083 l 363 1083 l 450 972 l 151 972 l 151 931 l 483 931 l 713 640 l 679 674 b 450 743 617 724 540 743 b 74 361 217 743 74 575 b 460 -21 74 164 201 -21 b 843 358 710 -21 843 154 b 669 767 843 461 817 585 z m 458 26 b 122 361 240 26 122 171 b 458 696 122 551 240 696 b 793 361 675 696 793 551 b 458 26 793 171 675 26 z "},"ď":{"ha":883,"x_min":0,"x_max":0,"o":"m 939 1004 b 897 964 917 1004 897 988 b 946 924 897 936 919 922 l 944 863 b 986 942 954 867 986 899 l 986 946 b 939 1004 986 976 971 1004 z m 788 586 l 792 538 b 453 744 742 654 628 744 b 74 361 226 744 74 585 b 453 -21 74 139 226 -21 b 788 176 617 -21 733 61 l 789 0 l 838 0 l 838 986 l 788 986 z m 457 25 b 119 361 243 25 119 168 b 457 697 119 554 243 697 b 790 361 664 697 790 554 b 457 25 790 168 664 25 z "},"đ":{"ha":939,"x_min":0,"x_max":0,"o":"m 925 861 l 838 861 l 838 986 l 788 986 l 788 861 l 590 861 l 590 817 l 788 817 l 788 586 l 792 538 b 453 744 742 654 628 744 b 74 361 226 744 74 585 b 453 -21 74 139 226 -21 b 788 176 617 -21 733 61 l 789 0 l 838 0 l 838 817 l 925 817 z m 457 25 b 119 361 243 25 119 168 b 457 697 119 554 243 697 b 790 361 664 697 790 554 b 457 25 790 168 664 25 z "},"e":{"ha":896,"x_min":0,"x_max":0,"o":"m 453 743 b 74 361 201 743 74 567 b 461 -21 74 149 210 -21 b 789 163 586 -21 714 13 l 738 163 b 469 22 681 60 583 22 b 124 325 256 22 138 146 l 822 325 b 453 743 835 599 679 743 z m 122 368 b 453 697 125 561 239 697 b 776 368 647 697 774 583 z "},"é":{"ha":896,"x_min":0,"x_max":0,"o":"m 606 1044 l 556 1044 l 440 815 l 490 815 z m 453 743 b 74 361 201 743 74 567 b 461 -21 74 149 210 -21 b 789 163 586 -21 714 13 l 738 163 b 469 22 681 60 583 22 b 124 325 256 22 138 146 l 822 325 b 453 743 835 599 679 743 z m 122 368 b 453 697 125 561 239 697 b 776 368 647 697 774 583 z "},"ě":{"ha":896,"x_min":0,"x_max":0,"o":"m 414 815 l 483 815 l 599 1044 l 549 1044 l 449 846 l 349 1044 l 299 1044 z m 453 743 b 74 361 201 743 74 567 b 461 -21 74 149 210 -21 b 789 163 586 -21 714 13 l 738 163 b 469 22 681 60 583 22 b 124 325 256 22 138 146 l 822 325 b 453 743 835 599 679 743 z m 122 368 b 453 697 125 561 239 697 b 776 368 647 697 774 583 z "},"ê":{"ha":896,"x_min":0,"x_max":0,"o":"m 449 1015 l 549 817 l 599 817 l 483 1046 l 414 1046 l 299 817 l 349 817 z m 453 743 b 74 361 201 743 74 567 b 461 -21 74 149 210 -21 b 789 163 586 -21 714 13 l 738 163 b 469 22 681 60 583 22 b 124 325 256 22 138 146 l 822 325 b 453 743 835 599 679 743 z m 122 368 b 453 697 125 561 239 697 b 776 368 647 697 774 583 z "},"ë":{"ha":896,"x_min":0,"x_max":0,"o":"m 274 935 b 311 972 300 935 311 956 b 274 1010 311 989 300 1010 b 236 972 247 1010 236 989 b 274 935 236 956 247 935 z m 619 935 b 657 972 644 935 657 956 b 619 1010 657 989 644 1010 b 582 972 593 1010 582 989 b 619 935 582 956 593 935 z m 453 743 b 74 361 201 743 74 567 b 461 -21 74 149 210 -21 b 789 163 586 -21 714 13 l 738 163 b 469 22 681 60 583 22 b 124 325 256 22 138 146 l 822 325 b 453 743 835 599 679 743 z m 122 368 b 453 697 125 561 239 697 b 776 368 647 697 774 583 z "},"ė":{"ha":896,"x_min":0,"x_max":0,"o":"m 449 935 b 486 972 475 935 486 956 b 449 1010 486 989 475 1010 b 411 972 422 1010 411 989 b 449 935 411 956 422 935 z m 453 743 b 74 361 201 743 74 567 b 461 -21 74 149 210 -21 b 789 163 586 -21 714 13 l 738 163 b 469 22 681 60 583 22 b 124 325 256 22 138 146 l 822 325 b 453 743 835 599 679 743 z m 122 368 b 453 697 125 561 239 697 b 776 368 647 697 774 583 z "},"è":{"ha":896,"x_min":0,"x_max":0,"o":"m 474 815 l 358 1044 l 308 1044 l 424 815 z m 453 743 b 74 361 201 743 74 567 b 461 -21 74 149 210 -21 b 789 163 586 -21 714 13 l 738 163 b 469 22 681 60 583 22 b 124 325 256 22 138 146 l 822 325 b 453 743 835 599 679 743 z m 122 368 b 453 697 125 561 239 697 b 776 368 647 697 774 583 z "},"ē":{"ha":896,"x_min":0,"x_max":0,"o":"m 643 1044 l 254 1044 l 254 1000 l 643 1000 z m 453 743 b 74 361 201 743 74 567 b 461 -21 74 149 210 -21 b 789 163 586 -21 714 13 l 738 163 b 469 22 681 60 583 22 b 124 325 256 22 138 146 l 822 325 b 453 743 835 599 679 743 z m 122 368 b 453 697 125 561 239 697 b 776 368 647 697 774 583 z "},"ę":{"ha":896,"x_min":0,"x_max":0,"o":"m 453 743 b 74 361 201 743 74 567 b 461 -21 74 149 210 -21 l 479 -21 b 361 -197 413 -58 361 -118 b 511 -340 361 -275 410 -340 b 575 -332 517 -340 550 -342 l 575 -299 l 569 -300 b 408 -187 492 -308 408 -282 b 553 -14 408 -121 449 -58 b 789 163 646 3 732 50 l 738 163 b 469 22 681 60 583 22 b 124 325 256 22 138 146 l 822 325 b 453 743 835 599 679 743 z m 122 368 b 453 697 125 561 239 697 b 776 368 647 697 774 583 z "},"f":{"ha":511,"x_min":0,"x_max":0,"o":"m 392 978 l 454 978 l 454 1021 l 397 1021 b 210 824 258 1021 210 949 l 210 722 l 57 722 l 57 676 l 210 676 l 210 0 l 260 0 l 260 676 l 454 676 l 454 722 l 260 722 l 260 828 b 392 978 260 917 290 978 z "},"g":{"ha":925,"x_min":0,"x_max":0,"o":"m 450 -231 b 817 79 681 -231 817 -117 l 817 722 l 771 722 l 767 585 l 778 538 b 439 744 725 654 610 744 b 74 381 211 744 74 583 b 438 19 74 178 210 19 b 774 226 574 19 706 74 l 772 158 l 772 92 b 457 -185 772 -153 575 -185 b 172 -115 326 -185 221 -147 l 172 -160 b 450 -231 219 -199 340 -231 z m 439 65 b 119 381 231 65 119 208 b 439 697 119 554 231 697 b 771 381 643 697 771 558 b 439 65 771 206 643 65 z "},"ğ":{"ha":925,"x_min":0,"x_max":0,"o":"m 451 793 b 669 1044 613 793 688 904 l 624 1044 b 451 838 639 914 582 838 b 278 1044 321 838 264 914 l 232 1044 b 451 793 214 904 289 793 z m 450 -231 b 817 79 681 -231 817 -117 l 817 722 l 771 722 l 767 585 l 778 538 b 439 744 725 654 610 744 b 74 381 211 744 74 583 b 438 19 74 178 210 19 b 774 226 574 19 706 74 l 772 158 l 772 92 b 457 -185 772 -153 575 -185 b 172 -115 326 -185 221 -147 l 172 -160 b 450 -231 219 -199 340 -231 z m 439 65 b 119 381 231 65 119 208 b 439 697 119 554 231 697 b 771 381 643 697 771 558 b 439 65 771 206 643 65 z "},"ģ":{"ha":925,"x_min":0,"x_max":0,"o":"m 442 815 l 492 815 l 607 1044 l 557 1044 z m 450 -231 b 817 79 681 -231 817 -117 l 817 722 l 771 722 l 767 585 l 778 538 b 439 744 725 654 610 744 b 74 381 211 744 74 583 b 438 19 74 178 210 19 b 774 226 574 19 706 74 l 772 158 l 772 92 b 457 -185 772 -153 575 -185 b 172 -115 326 -185 221 -147 l 172 -160 b 450 -231 219 -199 340 -231 z m 439 65 b 119 381 231 65 119 208 b 439 697 119 554 231 697 b 771 381 643 697 771 558 b 439 65 771 206 643 65 z "},"ġ":{"ha":925,"x_min":0,"x_max":0,"o":"m 450 935 b 488 972 476 935 488 956 b 450 1010 488 989 476 1010 b 413 972 424 1010 413 989 b 450 935 413 956 424 935 z m 450 -231 b 817 79 681 -231 817 -117 l 817 722 l 771 722 l 767 585 l 778 538 b 439 744 725 654 610 744 b 74 381 211 744 74 583 b 438 19 74 178 210 19 b 774 226 574 19 706 74 l 772 158 l 772 92 b 457 -185 772 -153 575 -185 b 172 -115 326 -185 221 -147 l 172 -160 b 450 -231 219 -199 340 -231 z m 439 65 b 119 381 231 65 119 208 b 439 697 119 554 231 697 b 771 381 643 697 771 558 b 439 65 771 206 643 65 z "},"h":{"ha":904,"x_min":0,"x_max":0,"o":"m 478 743 b 150 540 310 743 181 669 l 157 590 l 157 986 l 108 986 l 108 0 l 157 0 l 157 392 b 468 697 157 615 306 697 b 747 407 631 697 747 618 l 747 0 l 797 0 l 797 419 b 478 743 797 626 682 743 z "},"ħ":{"ha":904,"x_min":0,"x_max":0,"o":"m 478 743 b 150 540 310 743 181 669 l 157 590 l 157 826 l 365 826 l 365 869 l 157 869 l 157 986 l 108 986 l 108 869 l 0 869 l 0 826 l 108 826 l 108 0 l 157 0 l 157 392 b 468 697 157 615 306 697 b 747 407 631 697 747 618 l 747 0 l 797 0 l 797 419 b 478 743 797 626 682 743 z "},"i":{"ha":276,"x_min":0,"x_max":0,"o":"m 138 939 b 175 974 164 939 175 957 b 138 1008 175 992 164 1008 b 101 974 113 1008 101 992 b 138 939 101 957 113 939 z m 113 0 l 163 0 l 163 722 l 113 722 z "},"ı":{"ha":251,"x_min":0,"x_max":0,"o":"m 101 0 l 150 0 l 150 722 l 101 722 z "},"í":{"ha":251,"x_min":0,"x_max":0,"o":"m 117 815 l 167 815 l 282 1044 l 232 1044 z m 101 0 l 150 0 l 150 722 l 101 722 z "},"ǐ":{"ha":251,"x_min":0,"x_max":0,"o":"m 225 1044 l 125 846 l 25 1044 l -25 1044 l 90 815 l 160 815 l 275 1044 z m 101 0 l 150 0 l 150 722 l 101 722 z "},"î":{"ha":251,"x_min":0,"x_max":0,"o":"m 160 1046 l 90 1046 l -25 817 l 25 817 l 125 1015 l 225 817 l 275 817 z m 101 0 l 150 0 l 150 722 l 101 722 z "},"ï":{"ha":251,"x_min":0,"x_max":0,"o":"m -49 935 b -11 972 -22 935 -11 956 b -49 1010 -11 989 -22 1010 b -86 972 -75 1010 -86 989 b -49 935 -86 956 -75 935 z m 297 935 b 335 972 322 935 335 956 b 297 1010 335 989 322 1010 b 260 972 271 1010 260 989 b 297 935 260 956 271 935 z m 101 0 l 150 0 l 150 722 l 101 722 z "},"ì":{"ha":251,"x_min":0,"x_max":0,"o":"m 150 815 l 35 1044 l -15 1044 l 100 815 z m 101 0 l 150 0 l 150 722 l 101 722 z "},"ĳ":{"ha":553,"x_min":0,"x_max":0,"o":"m 414 940 b 451 975 440 940 451 958 b 414 1011 451 992 440 1011 b 378 975 389 1011 378 992 b 414 940 378 958 389 940 z m 138 939 b 175 974 164 939 175 957 b 138 1008 175 992 164 1008 b 101 974 113 1008 101 992 b 138 939 101 957 113 939 z m 113 0 l 163 0 l 163 722 l 113 722 z m 390 -215 l 440 -215 l 440 722 l 390 722 z "},"ī":{"ha":251,"x_min":0,"x_max":0,"o":"m -69 1000 l 319 1000 l 319 1044 l -69 1044 z m 101 0 l 150 0 l 150 722 l 101 722 z "},"į":{"ha":251,"x_min":0,"x_max":0,"o":"m 125 1010 b 88 972 99 1010 88 989 b 125 935 88 956 99 935 b 163 972 151 935 163 956 b 125 1010 163 989 151 1010 z m 101 8 l 99 8 b -86 -197 1 -24 -86 -93 b 64 -340 -86 -275 -37 -340 b 128 -332 69 -340 103 -342 l 128 -299 l 122 -300 b -39 -187 44 -308 -39 -282 b 142 0 -39 -114 10 -44 l 150 0 l 150 722 l 101 722 z "},"j":{"ha":276,"x_min":0,"x_max":0,"o":"m 138 940 b 175 975 164 940 175 958 b 138 1011 175 992 164 1011 b 101 975 113 1011 101 992 b 138 940 101 958 113 940 z m 114 -215 l 164 -215 l 164 722 l 114 722 z "},"k":{"ha":858,"x_min":0,"x_max":0,"o":"m 838 0 l 481 367 l 793 722 l 733 722 l 229 149 l 158 65 l 157 65 l 157 986 l 108 986 l 108 0 l 158 0 l 453 335 l 775 0 z "},"ķ":{"ha":858,"x_min":0,"x_max":0,"o":"m 481 367 l 793 722 l 733 722 l 229 149 l 158 65 l 157 65 l 157 986 l 108 986 l 108 0 l 158 0 l 453 335 l 775 0 l 838 0 z m 340 -257 l 388 -257 l 476 -42 l 429 -42 z "},"l":{"ha":265,"x_min":0,"x_max":0,"o":"m 108 0 l 157 0 l 157 986 l 108 986 z "},"ĺ":{"ha":265,"x_min":0,"x_max":0,"o":"m 124 1065 l 174 1065 l 289 1294 l 239 1294 z m 108 0 l 157 0 l 157 986 l 108 986 z "},"ľ":{"ha":265,"x_min":0,"x_max":0,"o":"m 232 1294 l 132 1096 l 32 1294 l -18 1294 l 97 1065 l 167 1065 l 282 1294 z m 108 0 l 157 0 l 157 986 l 108 986 z "},"ļ":{"ha":283,"x_min":0,"x_max":0,"o":"m 126 0 l 175 0 l 175 986 l 126 986 z m 32 -257 l 79 -257 l 168 -42 l 121 -42 z "},"ł":{"ha":306,"x_min":0,"x_max":0,"o":"m 347 596 l 185 572 l 185 986 l 135 986 l 135 565 l -42 540 l -42 493 l 135 518 l 135 0 l 185 0 l 185 525 l 347 549 z "},"m":{"ha":1485,"x_min":0,"x_max":0,"o":"m 1069 744 b 749 544 904 744 794 674 b 453 744 713 664 619 744 b 151 549 293 744 183 674 l 157 590 l 156 722 l 108 722 l 108 0 l 157 0 l 157 385 b 449 697 157 568 243 697 b 718 385 661 697 718 563 l 718 0 l 767 0 l 767 385 b 1061 697 767 568 853 697 b 1328 393 1282 697 1328 563 l 1328 0 l 1376 0 l 1376 415 b 1069 744 1376 606 1293 744 z "},"n":{"ha":904,"x_min":0,"x_max":0,"o":"m 478 743 b 150 540 310 743 181 669 l 157 590 l 156 722 l 108 722 l 108 0 l 157 0 l 157 392 b 468 697 157 615 306 697 b 747 407 631 697 747 618 l 747 0 l 797 0 l 797 419 b 478 743 797 626 682 743 z "},"ń":{"ha":904,"x_min":0,"x_max":0,"o":"m 610 1044 l 560 1044 l 444 815 l 494 815 z m 478 743 b 150 540 310 743 181 669 l 157 590 l 156 722 l 108 722 l 108 0 l 157 0 l 157 392 b 468 697 157 615 306 697 b 747 407 631 697 747 618 l 747 0 l 797 0 l 797 419 b 478 743 797 626 682 743 z "},"ň":{"ha":904,"x_min":0,"x_max":0,"o":"m 418 815 l 488 815 l 603 1044 l 553 1044 l 453 846 l 353 1044 l 303 1044 z m 478 743 b 150 540 310 743 181 669 l 157 590 l 156 722 l 108 722 l 108 0 l 157 0 l 157 392 b 468 697 157 615 306 697 b 747 407 631 697 747 618 l 747 0 l 797 0 l 797 419 b 478 743 797 626 682 743 z "},"ņ":{"ha":904,"x_min":0,"x_max":0,"o":"m 478 743 b 150 540 310 743 181 669 l 157 590 l 156 722 l 108 722 l 108 0 l 157 0 l 157 392 b 468 697 157 615 306 697 b 747 407 631 697 747 618 l 747 0 l 797 0 l 797 419 b 478 743 797 626 682 743 z m 365 -257 l 414 -257 l 503 -42 l 454 -42 z "},"ŋ":{"ha":904,"x_min":0,"x_max":0,"o":"m 478 743 b 150 540 310 743 181 669 l 157 590 l 156 722 l 108 722 l 108 0 l 157 0 l 157 392 b 468 697 157 615 306 697 b 747 407 631 697 747 618 l 747 -215 l 797 -215 l 797 419 b 478 743 797 626 682 743 z "},"ñ":{"ha":904,"x_min":0,"x_max":0,"o":"m 571 1003 b 685 967 594 1003 646 997 l 685 1014 b 574 1049 654 1042 603 1049 b 338 986 483 1049 419 986 b 224 1022 315 986 263 990 l 224 975 b 335 940 253 947 304 940 b 571 1003 425 940 486 1003 z m 478 743 b 150 540 310 743 181 669 l 157 590 l 156 722 l 108 722 l 108 0 l 157 0 l 157 392 b 468 697 157 615 306 697 b 747 407 631 697 747 618 l 747 0 l 797 0 l 797 419 b 478 743 797 626 682 743 z "},"o":{"ha":908,"x_min":0,"x_max":0,"o":"m 454 -21 b 835 361 696 -21 835 154 b 454 743 835 568 696 743 b 74 361 211 743 74 568 b 454 -21 74 154 214 -21 z m 454 25 b 122 361 244 25 122 167 b 454 697 122 558 244 697 b 786 361 664 697 786 558 b 454 25 786 164 664 25 z "},"ó":{"ha":908,"x_min":0,"x_max":0,"o":"m 446 815 l 496 815 l 611 1044 l 561 1044 z m 454 -21 b 835 361 696 -21 835 154 b 454 743 835 568 696 743 b 74 361 211 743 74 568 b 454 -21 74 154 214 -21 z m 454 25 b 122 361 244 25 122 167 b 454 697 122 558 244 697 b 786 361 664 697 786 558 b 454 25 786 164 664 25 z "},"ǒ":{"ha":908,"x_min":0,"x_max":0,"o":"m 419 815 l 489 815 l 604 1044 l 554 1044 l 454 846 l 354 1044 l 304 1044 z m 454 743 b 74 361 211 743 74 568 b 454 -21 74 154 214 -21 b 835 361 696 -21 835 154 b 454 743 835 568 696 743 z m 454 25 b 122 361 244 25 122 167 b 454 697 122 558 244 697 b 786 361 664 697 786 558 b 454 25 786 164 664 25 z "},"ô":{"ha":908,"x_min":0,"x_max":0,"o":"m 454 1015 l 554 817 l 604 817 l 489 1046 l 419 1046 l 304 817 l 354 817 z m 454 743 b 74 361 211 743 74 568 b 454 -21 74 154 214 -21 b 835 361 696 -21 835 154 b 454 743 835 568 696 743 z m 454 25 b 122 361 244 25 122 167 b 454 697 122 558 244 697 b 786 361 664 697 786 558 b 454 25 786 164 664 25 z "},"ö":{"ha":908,"x_min":0,"x_max":0,"o":"m 279 935 b 317 972 306 935 317 956 b 279 1010 317 989 306 1010 b 242 972 253 1010 242 989 b 279 935 242 956 253 935 z m 625 935 b 663 972 650 935 663 956 b 625 1010 663 989 650 1010 b 588 972 599 1010 588 989 b 625 935 588 956 599 935 z m 454 -21 b 835 361 696 -21 835 154 b 454 743 835 568 696 743 b 74 361 211 743 74 568 b 454 -21 74 154 214 -21 z m 454 25 b 122 361 244 25 122 167 b 454 697 122 558 244 697 b 786 361 664 697 786 558 b 454 25 786 164 664 25 z "},"ò":{"ha":908,"x_min":0,"x_max":0,"o":"m 479 815 l 364 1044 l 314 1044 l 429 815 z m 454 -21 b 835 361 696 -21 835 154 b 454 743 835 568 696 743 b 74 361 211 743 74 568 b 454 -21 74 154 214 -21 z m 454 25 b 122 361 244 25 122 167 b 454 697 122 558 244 697 b 786 361 664 697 786 558 b 454 25 786 164 664 25 z "},"ő":{"ha":908,"x_min":0,"x_max":0,"o":"m 324 788 l 374 788 l 489 1017 l 439 1017 z m 472 788 l 522 788 l 638 1017 l 588 1017 z m 454 -21 b 835 361 696 -21 835 154 b 454 743 835 568 696 743 b 74 361 211 743 74 568 b 454 -21 74 154 214 -21 z m 454 25 b 122 361 244 25 122 167 b 454 697 122 558 244 697 b 786 361 664 697 786 558 b 454 25 786 164 664 25 z "},"ō":{"ha":908,"x_min":0,"x_max":0,"o":"m 260 1000 l 649 1000 l 649 1044 l 260 1044 z m 454 -21 b 835 361 696 -21 835 154 b 454 743 835 568 696 743 b 74 361 211 743 74 568 b 454 -21 74 154 214 -21 z m 454 25 b 122 361 244 25 122 167 b 454 697 122 558 244 697 b 786 361 664 697 786 558 b 454 25 786 164 664 25 z "},"ø":{"ha":917,"x_min":0,"x_max":0,"o":"m 749 614 l 800 665 l 765 700 l 715 650 b 454 743 651 707 563 743 b 74 361 211 743 74 568 b 167 101 74 261 106 169 l 119 54 l 156 22 l 200 67 b 454 -21 264 13 350 -21 b 835 361 696 -21 835 154 b 749 614 835 457 804 546 z m 122 361 b 454 697 122 558 244 697 b 683 618 550 697 628 668 l 199 133 b 122 361 149 192 122 271 z m 454 25 b 232 99 363 25 288 51 l 717 582 b 786 361 763 525 786 449 b 454 25 786 164 664 25 z "},"õ":{"ha":908,"x_min":0,"x_max":0,"o":"m 336 940 b 572 1003 426 940 488 1003 b 686 967 596 1003 647 997 l 686 1014 b 575 1049 656 1042 604 1049 b 339 986 485 1049 421 986 b 225 1022 317 986 264 990 l 225 975 b 336 940 254 947 306 940 z m 454 -21 b 835 361 696 -21 835 154 b 454 743 835 568 696 743 b 74 361 211 743 74 568 b 454 -21 74 154 214 -21 z m 454 25 b 122 361 244 25 122 167 b 454 697 122 558 244 697 b 786 361 664 697 786 558 b 454 25 786 164 664 25 z "},"œ":{"ha":1607,"x_min":0,"x_max":0,"o":"m 1164 743 b 810 508 976 743 857 644 b 454 743 758 644 635 743 b 74 361 211 743 74 568 b 454 -21 74 154 214 -21 b 810 214 635 -21 758 78 b 1172 -21 858 75 983 -21 b 1500 163 1297 -21 1425 13 l 1449 163 b 1181 22 1392 60 1294 22 b 835 325 967 22 849 146 l 1533 325 b 1164 743 1546 599 1390 743 z m 454 25 b 122 361 244 25 122 167 b 454 697 122 558 244 697 b 785 388 654 697 775 571 b 785 361 785 378 785 369 l 785 335 b 454 25 775 151 654 25 z m 835 368 b 833 388 835 375 835 381 b 1164 697 843 569 958 697 b 1488 368 1358 697 1485 583 z "},"p":{"ha":946,"x_min":0,"x_max":0,"o":"m 493 744 b 154 538 317 744 204 654 l 157 586 l 157 722 l 108 722 l 108 -200 l 157 -200 l 157 179 b 493 -21 210 63 326 -21 b 872 361 719 -21 872 139 b 493 744 872 585 719 744 z m 489 25 b 154 361 282 25 154 168 b 489 697 154 554 282 697 b 825 361 703 697 825 554 b 489 25 825 168 703 25 z "},"þ":{"ha":946,"x_min":0,"x_max":0,"o":"m 493 744 b 154 538 317 744 204 654 l 157 586 l 157 986 l 108 986 l 108 -200 l 157 -200 l 157 179 b 493 -21 210 63 326 -21 b 872 361 719 -21 872 139 b 493 744 872 585 719 744 z m 489 25 b 154 361 282 25 154 168 b 489 697 154 554 282 697 b 825 361 703 697 825 554 b 489 25 825 168 703 25 z "},"q":{"ha":946,"x_min":0,"x_max":0,"o":"m 789 722 l 788 586 l 792 538 b 453 744 742 654 628 744 b 74 361 226 744 74 585 b 453 -21 74 139 226 -21 b 788 176 617 -21 733 61 l 788 -200 l 838 -200 l 838 722 z m 457 25 b 119 361 243 25 119 168 b 457 697 119 554 243 697 b 790 361 664 697 790 554 b 457 25 790 168 664 25 z "},"r":{"ha":796,"x_min":0,"x_max":0,"o":"m 435 743 b 154 571 286 743 197 681 l 157 590 l 156 722 l 108 722 l 108 0 l 157 0 l 157 406 b 435 697 157 638 294 697 b 663 485 568 697 663 638 l 663 475 l 710 475 l 710 504 b 435 743 710 647 614 743 z "},"ŕ":{"ha":796,"x_min":0,"x_max":0,"o":"m 543 1044 l 493 1044 l 378 815 l 428 815 z m 435 743 b 154 571 286 743 197 681 l 157 590 l 156 722 l 108 722 l 108 0 l 157 0 l 157 406 b 435 697 157 638 294 697 b 663 485 568 697 663 638 l 663 475 l 710 475 l 710 504 b 435 743 710 647 614 743 z "},"ř":{"ha":796,"x_min":0,"x_max":0,"o":"m 351 815 l 421 815 l 536 1044 l 486 1044 l 386 846 l 286 1044 l 236 1044 z m 435 743 b 154 571 286 743 197 681 l 157 590 l 156 722 l 108 722 l 108 0 l 157 0 l 157 406 b 435 697 157 638 294 697 b 663 485 568 697 663 638 l 663 475 l 710 475 l 710 504 b 435 743 710 647 614 743 z "},"ŗ":{"ha":796,"x_min":0,"x_max":0,"o":"m 435 743 b 154 571 286 743 197 681 l 157 590 l 156 722 l 108 722 l 108 0 l 157 0 l 157 406 b 435 697 157 638 294 697 b 663 485 568 697 663 638 l 663 475 l 710 475 l 710 504 b 435 743 710 647 614 743 z m 17 -257 l 64 -257 l 153 -42 l 106 -42 z "},"s":{"ha":794,"x_min":0,"x_max":0,"o":"m 394 -21 b 722 197 594 -21 725 33 b 506 374 719 290 678 356 l 328 392 b 128 538 172 407 128 454 b 393 699 128 642 203 699 b 663 528 596 699 647 631 l 706 528 b 396 743 699 710 536 743 b 81 543 186 743 81 671 b 313 349 81 435 142 365 l 486 331 b 678 190 624 318 678 285 b 399 22 678 54 553 22 b 118 183 208 22 138 74 l 74 183 b 394 -21 85 -1 276 -21 z "},"ś":{"ha":794,"x_min":0,"x_max":0,"o":"m 393 815 l 443 815 l 558 1044 l 508 1044 z m 394 -21 b 722 197 594 -21 725 33 b 506 374 719 290 678 356 l 328 392 b 128 538 172 407 128 454 b 393 699 128 642 203 699 b 663 528 596 699 647 631 l 706 528 b 396 743 699 710 536 743 b 81 543 186 743 81 671 b 313 349 81 435 142 365 l 486 331 b 678 190 624 318 678 285 b 399 22 678 54 553 22 b 118 183 208 22 138 74 l 74 183 b 394 -21 85 -1 276 -21 z "},"š":{"ha":794,"x_min":0,"x_max":0,"o":"m 367 815 l 436 815 l 551 1044 l 501 1044 l 401 846 l 301 1044 l 251 1044 z m 722 197 b 506 374 719 290 678 356 l 328 392 b 128 538 172 407 128 454 b 393 699 128 642 203 699 b 663 528 596 699 647 631 l 706 528 b 396 743 699 710 536 743 b 81 543 186 743 81 671 b 313 349 81 435 142 365 l 486 331 b 678 190 624 318 678 285 b 399 22 678 54 553 22 b 118 183 208 22 138 74 l 74 183 b 394 -21 85 -1 276 -21 b 722 197 594 -21 725 33 z "},"ş":{"ha":794,"x_min":0,"x_max":0,"o":"m 722 197 b 506 374 719 290 678 356 l 328 392 b 128 538 172 407 128 454 b 393 699 128 642 203 699 b 663 528 596 699 647 631 l 706 528 b 396 743 699 710 536 743 b 81 543 186 743 81 671 b 313 349 81 435 142 365 l 486 331 b 678 190 624 318 678 285 b 399 22 678 54 553 22 b 118 183 208 22 138 74 l 74 183 b 354 -19 83 18 238 -15 l 296 -119 l 406 -119 b 488 -204 465 -119 488 -161 b 399 -281 488 -247 464 -281 b 332 -257 364 -281 346 -267 l 314 -292 b 404 -326 331 -312 363 -326 b 535 -201 478 -326 535 -281 b 407 -76 535 -125 483 -76 b 371 -79 393 -76 382 -78 l 404 -21 b 722 197 599 -19 725 36 z "},"ș":{"ha":794,"x_min":0,"x_max":0,"o":"m 394 -21 b 722 197 594 -21 725 33 b 506 374 719 290 678 356 l 328 392 b 128 538 172 407 128 454 b 393 699 128 642 203 699 b 663 528 596 699 647 631 l 706 528 b 396 743 699 710 536 743 b 81 543 186 743 81 671 b 313 349 81 435 142 365 l 486 331 b 678 190 624 318 678 285 b 399 22 678 54 553 22 b 118 183 208 22 138 74 l 74 183 b 394 -21 85 -1 276 -21 z m 282 -257 l 329 -257 l 418 -42 l 371 -42 z "},"ß":{"ha":825,"x_min":0,"x_max":0,"o":"m 450 354 l 357 354 l 676 686 l 676 722 l 157 722 l 157 828 b 289 978 157 917 188 978 l 347 978 l 347 1021 l 294 1021 b 108 824 157 1021 108 949 l 108 0 l 157 0 l 157 679 l 613 679 l 290 346 l 290 308 l 419 308 b 703 67 568 308 703 268 b 379 -178 703 -128 568 -178 l 279 -178 l 279 -221 l 397 -221 b 753 65 644 -221 753 -121 b 450 354 753 329 539 354 z "},"t":{"ha":524,"x_min":0,"x_max":0,"o":"m 458 676 l 458 722 l 264 722 l 264 972 l 214 972 l 214 722 l 57 722 l 57 676 l 214 676 l 214 200 b 399 -7 214 69 257 -7 l 458 -7 l 458 40 l 407 40 b 264 185 292 40 264 93 l 264 676 z "},"ŧ":{"ha":524,"x_min":0,"x_max":0,"o":"m 458 676 l 458 722 l 264 722 l 264 972 l 214 972 l 214 722 l 57 722 l 57 676 l 214 676 l 214 453 l 57 453 l 57 410 l 214 410 l 214 200 b 399 -7 214 69 257 -7 l 458 -7 l 458 40 l 407 40 b 264 185 292 40 264 93 l 264 410 l 458 410 l 458 453 l 264 453 l 264 676 z "},"ť":{"ha":524,"x_min":0,"x_max":0,"o":"m 204 1065 l 274 1065 l 389 1294 l 339 1294 l 239 1096 l 139 1294 l 89 1294 z m 458 676 l 458 722 l 264 722 l 264 972 l 214 972 l 214 722 l 57 722 l 57 676 l 214 676 l 214 200 b 399 -7 214 69 257 -7 l 458 -7 l 458 40 l 407 40 b 264 185 292 40 264 93 l 264 676 z "},"ţ":{"ha":524,"x_min":0,"x_max":0,"o":"m 458 676 l 458 722 l 264 722 l 264 972 l 214 972 l 214 722 l 57 722 l 57 676 l 214 676 l 214 200 b 285 19 214 114 232 53 l 272 19 l 190 -119 l 300 -119 b 382 -204 360 -119 382 -161 b 293 -281 382 -247 358 -281 b 226 -257 258 -281 240 -267 l 208 -292 b 299 -326 225 -312 257 -326 b 429 -201 372 -326 429 -281 b 301 -76 429 -125 378 -76 b 265 -79 288 -76 276 -78 l 314 6 b 399 -7 338 -3 365 -7 l 458 -7 l 458 40 l 407 40 b 264 185 292 40 264 93 l 264 676 z "},"ț":{"ha":524,"x_min":0,"x_max":0,"o":"m 458 676 l 458 722 l 264 722 l 264 972 l 214 972 l 214 722 l 57 722 l 57 676 l 214 676 l 214 200 b 399 -7 214 69 257 -7 l 458 -7 l 458 40 l 407 40 b 264 185 292 40 264 93 l 264 676 z m 214 -257 l 261 -257 l 350 -42 l 303 -42 z "},"u":{"ha":906,"x_min":0,"x_max":0,"o":"m 747 722 l 747 331 b 436 25 747 107 599 25 b 157 315 274 25 157 104 l 157 722 l 108 722 l 108 303 b 428 -21 108 96 224 -21 b 753 178 593 -21 721 51 l 747 132 l 749 0 l 797 0 l 797 722 z "},"ú":{"ha":906,"x_min":0,"x_max":0,"o":"m 615 1044 l 565 1044 l 450 815 l 500 815 z m 747 722 l 747 331 b 436 25 747 107 599 25 b 157 315 274 25 157 104 l 157 722 l 108 722 l 108 303 b 428 -21 108 96 224 -21 b 753 178 593 -21 721 51 l 747 132 l 749 0 l 797 0 l 797 722 z "},"ŭ":{"ha":906,"x_min":0,"x_max":0,"o":"m 460 793 b 678 1044 621 793 696 904 l 632 1044 b 460 838 647 914 590 838 b 286 1044 329 838 272 914 l 240 1044 b 460 793 222 904 297 793 z m 747 722 l 747 331 b 436 25 747 107 599 25 b 157 315 274 25 157 104 l 157 722 l 108 722 l 108 303 b 428 -21 108 96 224 -21 b 753 178 593 -21 721 51 l 747 132 l 749 0 l 797 0 l 797 722 z "},"ǔ":{"ha":906,"x_min":0,"x_max":0,"o":"m 424 815 l 493 815 l 608 1044 l 558 1044 l 458 846 l 358 1044 l 308 1044 z m 747 722 l 747 331 b 436 25 747 107 599 25 b 157 315 274 25 157 104 l 157 722 l 108 722 l 108 303 b 428 -21 108 96 224 -21 b 753 178 593 -21 721 51 l 747 132 l 749 0 l 797 0 l 797 722 z "},"û":{"ha":906,"x_min":0,"x_max":0,"o":"m 458 1015 l 558 817 l 608 817 l 493 1046 l 424 1046 l 308 817 l 358 817 z m 747 722 l 747 331 b 436 25 747 107 599 25 b 157 315 274 25 157 104 l 157 722 l 108 722 l 108 303 b 428 -21 108 96 224 -21 b 753 178 593 -21 721 51 l 747 132 l 749 0 l 797 0 l 797 722 z "},"ü":{"ha":906,"x_min":0,"x_max":0,"o":"m 285 935 b 322 972 311 935 322 956 b 285 1010 322 989 311 1010 b 247 972 258 1010 247 989 b 285 935 247 956 258 935 z m 631 935 b 668 972 656 935 668 956 b 631 1010 668 989 656 1010 b 593 972 604 1010 593 989 b 631 935 593 956 604 935 z m 747 722 l 747 331 b 436 25 747 107 599 25 b 157 315 274 25 157 104 l 157 722 l 108 722 l 108 303 b 428 -21 108 96 224 -21 b 753 178 593 -21 721 51 l 747 132 l 749 0 l 797 0 l 797 722 z "},"ù":{"ha":906,"x_min":0,"x_max":0,"o":"m 483 815 l 368 1044 l 318 1044 l 433 815 z m 747 722 l 747 331 b 436 25 747 107 599 25 b 157 315 274 25 157 104 l 157 722 l 108 722 l 108 303 b 428 -21 108 96 224 -21 b 753 178 593 -21 721 51 l 747 132 l 749 0 l 797 0 l 797 722 z "},"ű":{"ha":906,"x_min":0,"x_max":0,"o":"m 494 1017 l 444 1017 l 329 788 l 379 788 z m 528 788 l 643 1017 l 593 1017 l 478 788 z m 747 722 l 747 331 b 436 25 747 107 599 25 b 157 315 274 25 157 104 l 157 722 l 108 722 l 108 303 b 428 -21 108 96 224 -21 b 753 178 593 -21 721 51 l 747 132 l 749 0 l 797 0 l 797 722 z "},"ū":{"ha":906,"x_min":0,"x_max":0,"o":"m 654 1044 l 265 1044 l 265 1000 l 654 1000 z m 747 722 l 747 331 b 436 25 747 107 599 25 b 157 315 274 25 157 104 l 157 722 l 108 722 l 108 303 b 428 -21 108 96 224 -21 b 753 178 593 -21 721 51 l 747 132 l 749 0 l 797 0 l 797 722 z "},"ų":{"ha":906,"x_min":0,"x_max":0,"o":"m 797 0 l 797 722 l 747 722 l 747 331 b 436 25 747 107 599 25 b 157 315 274 25 157 104 l 157 722 l 108 722 l 108 303 b 428 -21 108 96 224 -21 b 753 178 593 -21 721 51 l 747 132 l 749 7 b 569 -197 654 -26 569 -94 b 719 -340 569 -275 618 -340 b 783 -332 725 -340 758 -342 l 783 -299 l 778 -300 b 617 -187 700 -308 617 -282 b 797 0 617 -114 665 -44 z "},"ů":{"ha":906,"x_min":0,"x_max":0,"o":"m 458 840 b 574 953 532 840 574 894 b 458 1067 574 1013 532 1067 b 344 953 386 1067 344 1013 b 458 840 344 894 386 840 z m 458 1024 b 531 953 506 1024 531 993 b 458 883 531 914 506 883 b 388 953 413 883 388 914 b 458 1024 388 993 413 1024 z m 747 722 l 747 331 b 436 25 747 107 599 25 b 157 315 274 25 157 104 l 157 722 l 108 722 l 108 303 b 428 -21 108 96 224 -21 b 753 178 593 -21 721 51 l 747 132 l 749 0 l 797 0 l 797 722 z "},"v":{"ha":824,"x_min":0,"x_max":0,"o":"m 390 0 l 433 0 l 778 722 l 726 722 l 413 57 l 411 57 l 97 722 l 46 722 z "},"w":{"ha":1274,"x_min":0,"x_max":0,"o":"m 317 0 l 360 0 l 638 660 l 914 0 l 958 0 l 1229 722 l 1179 722 l 936 63 l 660 722 l 614 722 l 339 63 l 96 722 l 46 722 z "},"ẃ":{"ha":1274,"x_min":0,"x_max":0,"o":"m 629 815 l 679 815 l 794 1044 l 744 1044 z m 317 0 l 360 0 l 638 660 l 914 0 l 958 0 l 1229 722 l 1179 722 l 936 63 l 660 722 l 614 722 l 339 63 l 96 722 l 46 722 z "},"ŵ":{"ha":1274,"x_min":0,"x_max":0,"o":"m 638 1015 l 738 817 l 788 817 l 672 1046 l 603 1046 l 488 817 l 538 817 z m 1179 722 l 936 63 l 660 722 l 614 722 l 339 63 l 96 722 l 46 722 l 317 0 l 360 0 l 638 660 l 914 0 l 958 0 l 1229 722 z "},"ẅ":{"ha":1274,"x_min":0,"x_max":0,"o":"m 463 935 b 500 972 489 935 500 956 b 463 1010 500 989 489 1010 b 425 972 436 1010 425 989 b 463 935 425 956 436 935 z m 808 935 b 846 972 833 935 846 956 b 808 1010 846 989 833 1010 b 771 972 782 1010 771 989 b 808 935 771 956 782 935 z m 317 0 l 360 0 l 638 660 l 914 0 l 958 0 l 1229 722 l 1179 722 l 936 63 l 660 722 l 614 722 l 339 63 l 96 722 l 46 722 z "},"ẁ":{"ha":1274,"x_min":0,"x_max":0,"o":"m 663 815 l 547 1044 l 497 1044 l 613 815 z m 317 0 l 360 0 l 638 660 l 914 0 l 958 0 l 1229 722 l 1179 722 l 936 63 l 660 722 l 614 722 l 339 63 l 96 722 l 46 722 z "},"x":{"ha":785,"x_min":0,"x_max":0,"o":"m 53 0 l 118 0 l 392 331 l 667 0 l 732 0 l 422 364 l 726 722 l 663 722 l 392 399 l 122 722 l 58 722 l 365 364 z "},"y":{"ha":829,"x_min":0,"x_max":0,"o":"m 286 -200 l 339 -200 l 783 722 l 731 722 l 415 63 l 414 63 l 99 722 l 46 722 l 360 67 l 389 11 z "},"ý":{"ha":829,"x_min":0,"x_max":0,"o":"m 407 815 l 457 815 l 572 1044 l 522 1044 z m 286 -200 l 339 -200 l 783 722 l 731 722 l 415 63 l 414 63 l 99 722 l 46 722 l 360 67 l 389 11 z "},"ŷ":{"ha":829,"x_min":0,"x_max":0,"o":"m 414 1015 l 514 817 l 564 817 l 449 1046 l 379 1046 l 264 817 l 314 817 z m 731 722 l 415 63 l 414 63 l 99 722 l 46 722 l 360 67 l 389 11 l 286 -200 l 339 -200 l 783 722 z "},"ÿ":{"ha":829,"x_min":0,"x_max":0,"o":"m 240 935 b 278 972 267 935 278 956 b 240 1010 278 989 267 1010 b 203 972 214 1010 203 989 b 240 935 203 956 214 935 z m 586 935 b 624 972 611 935 624 956 b 586 1010 624 989 611 1010 b 549 972 560 1010 549 989 b 586 935 549 956 560 935 z m 286 -200 l 339 -200 l 783 722 l 731 722 l 415 63 l 414 63 l 99 722 l 46 722 l 360 67 l 389 11 z "},"ỳ":{"ha":829,"x_min":0,"x_max":0,"o":"m 439 815 l 324 1044 l 274 1044 l 389 815 z m 286 -200 l 339 -200 l 783 722 l 731 722 l 415 63 l 414 63 l 99 722 l 46 722 l 360 67 l 389 11 z "},"z":{"ha":806,"x_min":0,"x_max":0,"o":"m 71 0 l 742 0 l 742 46 l 131 46 l 735 676 l 735 722 l 88 722 l 88 676 l 675 676 l 71 46 z "},"ź":{"ha":806,"x_min":0,"x_max":0,"o":"m 394 815 l 444 815 l 560 1044 l 510 1044 z m 71 0 l 742 0 l 742 46 l 131 46 l 735 676 l 735 722 l 88 722 l 88 676 l 675 676 l 71 46 z "},"ž":{"ha":806,"x_min":0,"x_max":0,"o":"m 367 815 l 436 815 l 551 1044 l 501 1044 l 401 846 l 301 1044 l 251 1044 z m 131 46 l 735 676 l 735 722 l 88 722 l 88 676 l 675 676 l 71 46 l 71 0 l 742 0 l 742 46 z "},"ż":{"ha":806,"x_min":0,"x_max":0,"o":"m 403 935 b 440 972 429 935 440 956 b 403 1010 440 989 429 1010 b 365 972 376 1010 365 989 b 403 935 365 956 376 935 z m 71 0 l 742 0 l 742 46 l 131 46 l 735 676 l 735 722 l 88 722 l 88 676 l 675 676 l 71 46 z "},"⁄":{"ha":678,"x_min":0,"x_max":0,"o":"m 60 0 l 115 0 l 619 972 l 563 972 z "},".":{"ha":213,"x_min":0,"x_max":0,"o":"m 106 -7 b 146 31 133 -7 146 11 b 106 71 146 50 133 71 b 67 31 79 71 67 50 b 106 -7 67 11 79 -7 z "},",":{"ha":240,"x_min":0,"x_max":0,"o":"m 53 -165 l 100 -165 l 189 49 l 142 49 z "},":":{"ha":213,"x_min":0,"x_max":0,"o":"m 106 665 b 146 703 133 665 146 683 b 106 743 146 722 133 743 b 67 703 79 743 67 722 b 106 665 67 683 79 665 z m 106 -7 b 146 31 133 -7 146 11 b 106 71 146 50 133 71 b 67 31 79 71 67 50 b 106 -7 67 11 79 -7 z "},";":{"ha":260,"x_min":0,"x_max":0,"o":"m 167 665 b 207 703 194 665 207 683 b 167 743 207 722 194 743 b 126 703 139 743 126 722 b 167 665 126 683 139 665 z m 53 -165 l 100 -165 l 189 49 l 142 49 z "},"…":{"ha":574,"x_min":0,"x_max":0,"o":"m 106 -7 b 146 31 133 -7 146 11 b 106 71 146 50 133 71 b 67 31 79 71 67 50 b 106 -7 67 11 79 -7 z m 288 -7 b 328 31 314 -7 328 11 b 288 71 328 50 314 71 b 247 31 260 71 247 50 b 288 -7 247 11 260 -7 z m 468 -7 b 508 31 496 -7 508 11 b 468 71 508 50 496 71 b 428 31 440 71 428 50 b 468 -7 428 11 440 -7 z "},"!":{"ha":310,"x_min":0,"x_max":0,"o":"m 133 156 l 179 156 l 183 972 l 129 972 z m 154 -7 b 194 31 182 -7 194 11 b 154 71 194 50 182 71 b 115 31 128 71 115 50 b 154 -7 115 11 128 -7 z "},"¡":{"ha":310,"x_min":0,"x_max":0,"o":"m 154 743 b 115 706 128 743 115 725 b 154 665 115 686 128 665 b 194 706 182 665 194 686 b 154 743 194 725 182 743 z m 133 581 l 129 -236 l 183 -236 l 179 581 z "},"?":{"ha":926,"x_min":0,"x_max":0,"o":"m 408 158 l 457 158 b 589 364 456 258 468 313 l 643 389 b 846 671 806 460 846 542 b 474 993 846 885 728 993 b 81 633 214 993 69 878 l 132 633 b 476 944 119 842 235 944 b 796 683 713 944 796 843 b 631 436 796 525 717 474 l 581 414 b 408 158 419 343 401 267 z m 431 -7 b 471 31 458 -7 471 11 b 431 71 471 50 458 71 b 390 31 403 71 390 50 b 431 -7 390 11 403 -7 z "},"¿":{"ha":926,"x_min":0,"x_max":0,"o":"m 496 743 b 456 706 468 743 456 725 b 496 665 456 686 468 665 b 536 706 524 665 536 686 b 496 743 536 725 524 743 z m 518 578 l 468 578 b 338 372 469 478 458 424 l 282 347 b 81 65 121 276 81 194 b 453 -257 81 -149 199 -257 b 846 103 711 -257 857 -142 l 794 103 b 450 -208 806 -106 692 -208 b 131 53 214 -208 131 -107 b 296 300 131 211 208 263 l 346 322 b 518 578 507 393 525 469 z "},"·":{"ha":219,"x_min":0,"x_max":0,"o":"m 110 358 b 150 396 138 358 150 376 b 110 436 150 415 138 436 b 69 396 82 436 69 415 b 110 358 69 376 82 358 z "},"•":{"ha":394,"x_min":0,"x_max":0,"o":"m 197 333 b 256 390 236 333 256 357 b 197 447 256 424 236 447 b 139 390 158 447 139 424 b 197 333 139 357 158 333 z "},"*":{"ha":728,"x_min":0,"x_max":0,"o":"m 204 369 l 364 582 l 522 369 l 558 396 l 400 610 l 654 693 l 639 735 l 386 654 l 388 924 l 340 924 l 342 654 l 88 735 l 74 693 l 328 610 l 169 396 z "},"#":{"ha":946,"x_min":0,"x_max":0,"o":"m 871 625 l 886 669 l 713 669 l 810 972 l 760 972 l 663 669 l 399 669 l 496 972 l 447 972 l 350 669 l 176 669 l 160 625 l 335 625 l 246 350 l 81 350 l 60 306 l 232 306 l 133 0 l 182 0 l 281 306 l 544 306 l 446 0 l 496 0 l 594 306 l 769 306 l 792 350 l 608 350 l 697 625 z m 558 350 l 294 350 l 383 625 l 647 625 z "},"/":{"ha":596,"x_min":0,"x_max":0,"o":"m 60 0 l 108 0 l 536 972 l 488 972 z "},"\\":{"ha":596,"x_min":0,"x_max":0,"o":"m 536 0 l 108 972 l 60 972 l 488 0 z "},"(":{"ha":465,"x_min":0,"x_max":0,"o":"m 371 -192 l 394 -192 l 394 -143 l 388 -143 b 90 307 142 -143 90 -21 l 90 660 b 388 1118 90 999 142 1118 l 394 1118 l 394 1167 l 371 1167 b 36 676 85 1167 36 988 l 36 290 b 371 -192 36 -12 85 -192 z "},")":{"ha":544,"x_min":0,"x_max":0,"o":"m 94 -192 b 429 290 382 -192 429 -12 l 429 676 b 94 1167 429 988 382 1167 l 71 1167 l 71 1118 l 78 1118 b 376 660 324 1118 376 999 l 376 307 b 78 -143 376 -21 324 -143 l 71 -143 l 71 -192 z "},"{":{"ha":589,"x_min":0,"x_max":0,"o":"m 532 1061 l 532 1110 l 165 1110 l 165 513 l 57 513 l 57 464 l 165 464 l 165 -129 l 532 -129 l 532 -81 l 218 -81 l 218 1061 z "},"}":{"ha":589,"x_min":0,"x_max":0,"o":"m 532 513 l 425 513 l 425 1110 l 57 1110 l 57 1061 l 371 1061 l 371 -81 l 57 -81 l 57 -129 l 425 -129 l 425 464 l 532 464 z "},"[":{"ha":539,"x_min":0,"x_max":0,"o":"m 115 -129 l 482 -129 l 482 -81 l 168 -81 l 168 1061 l 482 1061 l 482 1110 l 115 1110 z "},"]":{"ha":539,"x_min":0,"x_max":0,"o":"m 425 -129 l 425 1110 l 57 1110 l 57 1061 l 371 1061 l 371 -81 l 57 -81 l 57 -129 z "},"-":{"ha":467,"x_min":0,"x_max":0,"o":"m 67 336 l 400 336 l 400 381 l 67 381 z "},"–":{"ha":797,"x_min":0,"x_max":0,"o":"m 67 336 l 732 336 l 732 381 l 67 381 z "},"—":{"ha":1022,"x_min":0,"x_max":0,"o":"m 67 336 l 958 336 l 958 381 l 67 381 z "},"_":{"ha":522,"x_min":0,"x_max":0,"o":"m 67 -44 l 456 -44 l 456 0 l 67 0 z "},"‚":{"ha":193,"x_min":0,"x_max":0,"o":"m 99 -71 b 140 8 110 -67 140 -35 l 140 13 b 93 71 140 43 125 71 b 53 31 71 71 53 54 b 100 -11 53 3 74 -11 z "},"„":{"ha":353,"x_min":0,"x_max":0,"o":"m 99 -71 b 140 8 110 -67 140 -35 l 140 13 b 93 71 140 43 125 71 b 53 31 71 71 53 54 b 100 -11 53 3 74 -11 z m 258 -71 b 300 8 268 -67 300 -35 l 300 13 b 253 71 300 43 285 71 b 211 31 231 71 211 54 b 260 -11 211 3 232 -11 z "},"“":{"ha":394,"x_min":0,"x_max":0,"o":"m 122 983 b 81 904 111 979 81 949 l 81 900 b 126 842 81 869 96 842 b 168 882 150 842 168 858 b 121 924 168 911 147 924 z m 282 983 b 239 904 271 979 239 949 l 239 900 b 286 842 239 869 254 842 b 328 882 310 842 328 858 b 281 924 328 911 307 924 z "},"”":{"ha":394,"x_min":0,"x_max":0,"o":"m 113 842 b 154 921 124 846 154 878 l 154 925 b 107 983 154 956 139 983 b 67 943 85 983 67 967 b 114 903 67 915 88 901 z m 272 842 b 314 921 282 846 314 878 l 314 925 b 267 983 314 956 299 983 b 225 943 244 983 225 967 b 274 903 225 915 246 901 z "},"‘":{"ha":235,"x_min":0,"x_max":0,"o":"m 122 983 b 81 904 111 979 81 949 l 81 900 b 126 842 81 869 96 842 b 168 882 150 842 168 858 b 121 924 168 911 147 924 z "},"’":{"ha":235,"x_min":0,"x_max":0,"o":"m 113 842 b 154 921 124 846 154 878 l 154 925 b 107 983 154 956 139 983 b 67 943 85 983 67 967 b 114 903 67 915 88 901 z "},"«":{"ha":788,"x_min":0,"x_max":0,"o":"m 392 17 l 428 50 l 90 375 l 428 700 l 392 733 l 42 397 l 42 353 z m 710 17 l 746 50 l 408 375 l 746 700 l 710 733 l 360 397 l 360 353 z "},"»":{"ha":788,"x_min":0,"x_max":0,"o":"m 78 17 l 428 353 l 428 397 l 78 733 l 42 700 l 379 375 l 42 50 z m 396 17 l 746 353 l 746 397 l 396 733 l 360 700 l 696 375 l 360 50 z "},"‹":{"ha":469,"x_min":0,"x_max":0,"o":"m 392 17 l 428 50 l 90 375 l 428 700 l 392 733 l 42 397 l 42 353 z "},"›":{"ha":469,"x_min":0,"x_max":0,"o":"m 78 17 l 428 353 l 428 397 l 78 733 l 42 700 l 379 375 l 42 50 z "},"\"":{"ha":304,"x_min":0,"x_max":0,"o":"m 60 706 l 106 706 l 113 972 l 53 972 z m 199 706 l 243 706 l 251 972 l 190 972 z "},"'":{"ha":165,"x_min":0,"x_max":0,"o":"m 60 706 l 106 706 l 113 972 l 53 972 z "},"¢":{"ha":874,"x_min":0,"x_max":0,"o":"m 463 153 b 119 489 244 153 119 297 b 463 825 119 682 244 825 b 754 626 608 825 714 761 l 800 626 b 561 861 771 753 686 835 l 592 975 l 547 988 l 515 868 b 463 871 499 869 481 871 b 74 489 208 871 76 696 b 315 129 71 328 156 183 l 282 8 l 326 -4 l 358 118 b 463 107 390 111 425 107 b 800 351 642 107 758 196 l 754 351 b 463 153 714 217 608 153 z "},"¤":{"ha":868,"x_min":0,"x_max":0,"o":"m 799 358 b 714 604 799 451 769 539 l 796 683 l 765 713 l 682 638 b 435 725 621 692 538 725 b 186 638 331 725 247 692 l 103 713 l 74 683 l 154 604 b 69 358 99 539 69 451 b 154 118 69 268 99 183 l 74 39 l 103 10 l 186 85 b 435 -3 247 31 331 -3 b 682 85 538 -3 621 31 l 765 10 l 796 39 l 714 118 b 799 358 769 183 799 268 z m 114 358 b 435 681 114 535 232 681 b 754 358 638 681 754 535 b 435 42 754 188 638 42 b 114 358 232 42 114 188 z "},"$":{"ha":792,"x_min":0,"x_max":0,"o":"m 710 328 b 499 504 707 422 667 488 l 326 522 b 132 668 176 538 132 586 b 390 831 132 772 206 831 b 651 658 586 831 636 763 l 694 658 b 519 861 689 785 611 840 l 550 975 l 506 988 l 474 869 b 393 874 447 872 419 874 b 86 675 190 874 86 801 b 313 479 86 565 146 497 l 481 461 b 667 321 614 450 667 415 b 396 154 667 185 546 154 b 122 314 211 154 142 206 l 79 314 b 271 119 88 186 178 138 l 240 8 l 285 -4 l 315 114 b 392 110 342 111 368 110 b 710 328 586 110 713 165 z "},"€":{"ha":1229,"x_min":0,"x_max":0,"o":"m 846 571 l 226 568 b 681 944 257 782 413 944 b 1094 656 886 944 1036 860 l 1143 656 b 681 993 1085 888 915 993 b 178 567 388 993 210 807 l 81 567 l 81 519 l 846 522 z m 681 28 b 229 400 413 28 260 189 l 846 403 l 846 451 l 81 447 l 81 400 l 178 400 b 681 -21 213 163 388 -21 b 1143 317 915 -21 1085 85 l 1094 317 b 681 28 1036 113 886 28 z "},"£":{"ha":899,"x_min":0,"x_max":0,"o":"m 819 633 b 469 993 831 878 696 993 b 119 707 246 993 119 886 b 225 356 119 588 183 475 l 132 354 l 132 307 l 240 307 b 261 169 253 263 261 217 b 108 93 261 61 208 26 l 81 47 b 243 -1 142 8 200 -1 b 543 49 342 -1 403 49 b 797 0 633 49 713 31 l 797 56 b 556 101 722 82 650 101 b 257 40 469 101 390 83 b 308 181 282 53 308 89 b 290 307 308 225 301 267 l 774 307 l 774 356 l 276 356 b 171 704 236 475 171 583 b 464 943 171 865 282 943 b 767 633 675 943 778 840 z "},"¥":{"ha":1046,"x_min":0,"x_max":0,"o":"m 994 972 l 938 972 l 525 290 l 521 290 l 108 972 l 53 972 l 474 283 l 106 283 l 106 238 l 942 238 l 942 283 l 574 283 z m 106 122 l 500 122 l 500 0 l 550 0 l 550 122 l 942 122 l 942 168 l 106 168 z "},"+":{"ha":821,"x_min":0,"x_max":0,"o":"m 739 507 l 432 507 l 433 835 l 388 835 l 388 507 l 68 507 l 68 464 l 388 464 l 388 140 l 431 140 l 432 464 l 739 464 z "},"−":{"ha":768,"x_min":0,"x_max":0,"o":"m 68 336 l 701 336 l 701 381 l 68 381 z "},"×":{"ha":785,"x_min":0,"x_max":0,"o":"m 53 0 l 118 0 l 392 331 l 667 0 l 732 0 l 422 364 l 726 722 l 663 722 l 392 399 l 122 722 l 58 722 l 365 364 z "},"÷":{"ha":768,"x_min":0,"x_max":0,"o":"m 385 654 b 414 685 401 654 414 668 b 385 714 414 701 401 714 b 356 685 368 714 356 701 b 385 654 356 668 368 654 z m 68 336 l 701 336 l 701 381 l 68 381 z m 385 8 b 414 38 401 8 414 21 b 385 68 414 54 401 68 b 356 38 368 68 356 54 b 385 8 356 21 368 8 z "},"=":{"ha":768,"x_min":0,"x_max":0,"o":"m 68 508 l 701 508 l 701 551 l 68 551 z m 68 164 l 701 164 l 701 208 l 68 208 z "},"≠":{"ha":768,"x_min":0,"x_max":0,"o":"m 701 508 l 701 551 l 493 551 l 622 844 l 572 844 l 443 551 l 68 551 l 68 508 l 425 508 l 292 208 l 68 208 l 68 164 l 272 164 l 144 -128 l 194 -128 l 322 164 l 701 164 l 701 208 l 342 208 l 475 508 z "},">":{"ha":821,"x_min":0,"x_max":0,"o":"m 67 36 l 754 335 l 754 385 l 67 683 l 67 633 l 706 360 l 67 86 z "},"<":{"ha":821,"x_min":0,"x_max":0,"o":"m 754 36 l 754 86 l 114 360 l 754 633 l 754 683 l 67 385 l 67 335 z "},"≥":{"ha":821,"x_min":0,"x_max":0,"o":"m 67 190 l 754 489 l 754 539 l 67 838 l 67 788 l 706 514 l 67 240 z m 68 -26 l 739 -26 l 739 18 l 68 18 z "},"≤":{"ha":821,"x_min":0,"x_max":0,"o":"m 754 190 l 754 240 l 114 514 l 754 788 l 754 838 l 67 539 l 67 489 z m 753 -26 l 753 18 l 81 18 l 81 -26 z "},"±":{"ha":818,"x_min":0,"x_max":0,"o":"m 386 89 l 429 89 l 429 413 l 738 413 l 738 456 l 431 456 l 431 783 l 386 783 l 386 456 l 67 456 l 67 413 l 386 413 z m 68 18 l 68 -25 l 739 -25 l 739 18 z "},"≈":{"ha":944,"x_min":0,"x_max":0,"o":"m 264 419 b 668 488 433 419 511 488 b 903 439 728 488 822 479 l 903 490 b 681 536 832 525 747 536 b 276 468 511 536 433 468 b 42 517 217 468 122 478 l 42 465 b 264 419 113 431 197 419 z m 264 185 b 668 253 433 185 511 253 b 903 204 728 253 822 243 l 903 256 b 681 301 832 290 747 301 b 276 233 511 301 433 233 b 42 282 217 233 122 242 l 42 231 b 264 185 113 196 197 185 z "},"~":{"ha":944,"x_min":0,"x_max":0,"o":"m 264 303 b 668 371 433 303 511 371 b 903 322 728 371 822 361 l 903 372 b 681 418 832 408 747 418 b 276 350 511 418 433 350 b 42 399 217 350 122 360 l 42 349 b 264 303 113 313 197 303 z "},"¬":{"ha":768,"x_min":0,"x_max":0,"o":"m 701 485 l 68 485 l 68 440 l 658 440 l 658 207 l 701 207 z "},"^":{"ha":754,"x_min":0,"x_max":0,"o":"m 76 481 l 378 922 l 678 481 l 719 510 l 400 972 l 354 972 l 35 510 z "},"∅":{"ha":971,"x_min":0,"x_max":0,"o":"m 899 792 l 864 824 l 724 665 b 481 743 661 714 579 743 b 100 361 238 743 100 568 b 207 85 100 254 138 156 l 74 -65 l 107 -97 l 242 54 b 481 -21 304 7 385 -21 b 863 361 722 -21 863 154 b 758 633 863 467 826 564 z m 149 361 b 481 697 149 558 271 697 b 693 632 568 697 639 674 l 238 119 b 149 361 179 179 149 263 z m 813 361 b 481 25 813 164 692 25 b 272 88 396 25 326 49 l 728 600 b 813 361 783 542 813 458 z "},"∞":{"ha":1822,"x_min":0,"x_max":0,"o":"m 449 -21 b 1369 696 913 -21 942 696 b 1700 363 1572 696 1700 544 b 1364 26 1700 178 1568 26 b 1064 261 1188 26 1090 133 l 1018 261 b 1364 -21 1033 118 1160 -21 b 1750 357 1600 -21 1750 154 b 1374 743 1750 567 1603 743 b 453 26 910 743 882 26 b 122 360 250 26 122 178 b 458 696 122 544 254 696 b 758 461 635 696 732 589 l 804 461 b 458 743 790 604 663 743 b 74 365 222 743 74 568 b 449 -21 74 156 219 -21 z "},"∫":{"ha":544,"x_min":0,"x_max":0,"o":"m 57 -278 l 110 -278 b 297 -81 249 -278 297 -206 l 297 828 b 429 978 297 917 328 978 l 488 978 l 488 1021 l 435 1021 b 247 824 296 1021 247 949 l 247 -85 b 115 -235 247 -174 217 -235 l 57 -235 z "},"∏":{"ha":1057,"x_min":0,"x_max":0,"o":"m 115 972 l 115 0 l 168 0 l 168 924 l 889 924 l 889 0 l 942 0 l 942 972 z "},"∑":{"ha":1076,"x_min":0,"x_max":0,"o":"m 115 0 l 963 0 l 963 49 l 188 49 l 188 60 l 561 481 l 561 492 l 188 913 l 188 924 l 963 924 l 963 972 l 115 972 l 115 925 l 497 492 l 497 481 l 115 47 z "},"√":{"ha":775,"x_min":0,"x_max":0,"o":"m 667 972 l 239 56 l 110 331 l 53 331 l 210 0 l 267 0 l 724 972 z "},"∂":{"ha":831,"x_min":0,"x_max":0,"o":"m 672 542 l 346 972 l 286 972 l 578 592 b 403 629 531 618 472 629 b 74 306 176 629 74 463 b 415 -21 74 133 199 -21 b 757 303 632 -21 757 131 b 672 542 757 392 731 464 z m 415 29 b 126 306 228 29 126 153 b 415 583 126 460 228 583 b 704 306 603 583 704 460 b 415 29 704 153 603 29 z "},"%":{"ha":897,"x_min":0,"x_max":0,"o":"m 125 899 b 172 946 153 899 172 919 b 125 993 172 972 153 993 b 78 946 99 993 78 972 b 125 899 78 919 99 899 z m 81 0 l 136 0 l 814 972 l 758 972 z m 769 -19 b 817 28 796 -19 817 1 b 769 75 817 54 796 75 b 722 28 742 75 722 54 b 769 -19 722 1 742 -19 z "},"‰":{"ha":1057,"x_min":0,"x_max":0,"o":"m 125 899 b 172 946 153 899 172 919 b 125 993 172 972 153 993 b 78 946 99 993 78 972 b 125 899 78 919 99 899 z m 81 0 l 136 0 l 814 972 l 758 972 z m 769 -19 b 817 28 796 -19 817 1 b 769 75 817 54 796 75 b 722 28 742 75 722 54 b 769 -19 722 1 742 -19 z m 929 -19 b 976 28 957 -19 976 1 b 929 75 976 54 957 75 b 882 28 903 75 882 54 b 929 -19 882 1 903 -19 z "},"◊":{"ha":954,"x_min":0,"x_max":0,"o":"m 478 -33 l 882 364 l 478 761 l 74 364 z m 478 35 l 139 364 l 478 693 l 815 364 z "},"@":{"ha":931,"x_min":0,"x_max":0,"o":"m 465 -21 b 790 136 622 -21 740 56 b 747 124 781 128 764 124 b 663 207 710 124 663 142 l 663 250 b 447 113 621 151 546 113 b 210 361 304 113 210 219 b 450 610 210 503 301 610 b 656 496 553 610 617 569 l 647 529 l 660 593 l 701 593 l 701 235 b 757 169 701 185 729 169 b 850 347 844 169 850 299 b 465 743 850 567 707 743 b 81 361 224 743 81 567 b 465 -21 81 156 224 -21 z m 463 167 b 638 361 579 167 638 250 b 458 556 638 474 579 556 b 269 361 335 556 269 471 b 463 167 269 251 338 167 z "},"&":{"ha":989,"x_min":0,"x_max":0,"o":"m 919 -21 l 829 111 b 908 325 882 174 908 244 b 896 388 908 371 900 392 l 854 388 b 863 329 860 388 863 358 b 804 147 863 258 842 196 l 272 929 l 678 929 l 678 972 l 190 972 l 358 725 b 81 361 174 664 81 532 b 507 -21 81 146 238 -21 b 800 75 604 -21 701 1 l 865 -21 z m 129 363 b 383 688 129 522 215 638 l 774 114 b 511 26 713 58 622 26 b 129 363 281 26 129 157 z "},"¶":{"ha":1097,"x_min":0,"x_max":0,"o":"m 571 0 l 1039 0 l 1039 49 l 892 49 l 892 924 l 1039 924 l 1039 972 l 571 972 b 81 486 249 972 81 786 b 571 0 81 186 279 0 z m 660 49 l 660 924 l 838 924 l 838 49 z "},"§":{"ha":844,"x_min":0,"x_max":0,"o":"m 426 -65 b 742 139 654 -65 742 35 b 619 304 742 217 708 271 b 765 475 704 325 765 369 b 539 669 765 572 707 656 l 326 686 b 153 833 207 693 153 740 b 422 989 153 922 219 989 b 676 826 624 989 661 918 l 724 826 b 419 1036 714 1013 544 1036 b 103 832 190 1036 103 951 b 225 667 103 754 136 700 b 81 489 142 646 81 589 b 307 300 81 404 139 314 l 518 285 b 692 136 638 278 692 231 b 424 -18 692 49 626 -18 b 169 144 222 -18 183 51 l 122 144 b 426 -65 131 -43 301 -65 z m 529 329 l 331 344 b 129 493 190 356 129 403 b 317 642 129 582 197 650 l 514 626 b 715 478 654 615 715 568 b 529 329 715 388 649 319 z "},"©":{"ha":914,"x_min":0,"x_max":0,"o":"m 457 257 b 833 625 692 257 833 426 b 457 993 833 828 692 993 b 81 625 222 993 81 828 b 457 257 81 426 222 257 z m 461 354 b 178 625 282 354 178 481 b 461 896 178 769 282 896 b 713 725 588 896 686 831 l 672 725 b 460 858 644 813 572 858 b 219 625 304 858 219 754 b 460 392 219 494 304 392 b 672 525 572 392 644 438 l 713 525 b 461 354 686 422 588 354 z "},"®":{"ha":914,"x_min":0,"x_max":0,"o":"m 457 257 b 833 625 692 257 833 426 b 457 993 833 828 692 993 b 81 625 222 993 81 828 b 457 257 81 426 222 257 z m 251 383 l 251 864 l 508 864 b 688 699 639 864 688 786 b 611 547 688 642 669 588 l 699 383 l 657 383 l 574 533 l 290 533 l 290 383 z m 290 571 l 525 571 b 650 697 613 571 650 617 b 525 825 650 778 613 825 l 290 825 z "},"™":{"ha":1139,"x_min":0,"x_max":0,"o":"m 203 972 l 156 972 l 156 883 l 57 883 l 57 842 l 156 842 l 156 575 b 269 461 156 499 203 461 l 329 461 l 329 506 l 303 506 b 203 578 228 506 203 524 l 203 842 l 329 842 l 329 883 l 203 883 z m 879 896 b 726 794 792 896 747 853 b 590 896 711 860 665 896 b 440 790 500 896 465 846 l 453 828 l 453 883 l 407 883 l 407 465 l 453 465 l 453 735 b 585 853 453 789 499 853 b 696 743 668 853 696 797 l 696 465 l 742 465 l 742 735 b 875 853 742 789 789 853 b 983 743 960 853 983 797 l 983 465 l 1031 465 l 1031 732 b 879 896 1031 849 975 896 z "},"°":{"ha":678,"x_min":0,"x_max":0,"o":"m 339 474 b 604 733 506 474 604 592 b 339 993 604 875 506 993 b 74 733 172 993 74 875 b 339 474 74 592 172 474 z m 339 518 b 119 733 204 518 119 610 b 339 949 119 857 204 949 b 558 733 474 949 558 857 b 339 518 558 610 474 518 z "},"|":{"ha":283,"x_min":0,"x_max":0,"o":"m 115 -139 l 168 -139 l 168 1111 l 115 1111 z "},"¦":{"ha":283,"x_min":0,"x_max":0,"o":"m 115 535 l 168 535 l 168 1111 l 115 1111 z m 115 -139 l 168 -139 l 168 438 l 115 438 z "},"†":{"ha":483,"x_min":0,"x_max":0,"o":"m 419 810 l 265 810 l 265 972 l 215 972 l 215 810 l 57 810 l 57 767 l 215 767 l 215 604 l 265 604 l 265 767 l 419 767 z "},"‡":{"ha":483,"x_min":0,"x_max":0,"o":"m 265 810 l 265 972 l 215 972 l 215 810 l 57 810 l 57 767 l 215 767 l 215 604 l 265 604 l 265 767 l 419 767 l 419 810 z m 265 368 l 215 368 l 215 206 l 57 206 l 57 163 l 215 163 l 215 0 l 265 0 l 265 163 l 419 163 l 419 206 l 265 206 z "},"№":{"ha":1765,"x_min":0,"x_max":0,"o":"m 1344 321 b 1685 657 1556 321 1685 469 b 1344 993 1685 844 1556 993 b 1004 657 1135 993 1004 844 b 1344 321 1004 471 1138 321 z m 115 0 l 165 0 l 165 732 l 164 915 l 172 915 l 778 0 l 857 0 l 857 972 l 807 972 l 807 240 l 808 57 l 799 57 l 193 972 l 115 972 z m 1344 368 b 1056 657 1169 368 1056 483 b 1344 947 1056 833 1171 947 b 1635 657 1519 947 1635 833 b 1344 368 1635 483 1519 368 z m 1103 0 l 1583 0 l 1583 46 l 1103 46 z "},"̨":{"ha":0,"x_min":0,"x_max":0,"o":"m -92 -247 b -28 -239 -86 -247 -53 -249 l -28 -206 l -33 -207 b -194 -94 -111 -215 -194 -189 b -14 93 -194 -21 -146 49 l -57 101 b -242 -104 -154 69 -242 0 b -92 -247 -242 -182 -193 -247 z "},"´":{"ha":193,"x_min":0,"x_max":0,"o":"m 14 815 l 64 815 l 179 1044 l 129 1044 z "},"˘":{"ha":471,"x_min":0,"x_max":0,"o":"m 236 793 b 454 1044 397 793 472 904 l 408 1044 b 236 838 424 914 367 838 b 63 1044 106 838 49 914 l 17 1044 b 236 793 -1 904 74 793 z "},"ˇ":{"ha":328,"x_min":0,"x_max":0,"o":"m 264 1044 l 164 846 l 64 1044 l 14 1044 l 129 815 l 199 815 l 314 1044 z "},"¸":{"ha":267,"x_min":0,"x_max":0,"o":"m 125 -76 b 89 -79 111 -76 100 -78 l 146 19 l 96 19 l 14 -119 l 124 -119 b 206 -204 183 -119 206 -161 b 117 -281 206 -247 182 -281 b 50 -257 82 -281 64 -267 l 32 -292 b 122 -326 49 -312 81 -326 b 253 -201 196 -326 253 -281 b 125 -76 253 -125 201 -76 z "},"ˆ":{"ha":328,"x_min":0,"x_max":0,"o":"m 314 817 l 199 1046 l 129 1046 l 14 817 l 64 817 l 164 1015 l 264 817 z "},"¨":{"ha":449,"x_min":0,"x_max":0,"o":"m 51 935 b 89 972 78 935 89 956 b 51 1010 89 989 78 1010 b 14 972 25 1010 14 989 b 51 935 14 956 25 935 z m 397 935 b 435 972 422 935 435 956 b 397 1010 435 989 422 1010 b 360 972 371 1010 360 989 b 397 935 360 956 371 935 z "},"˙":{"ha":103,"x_min":0,"x_max":0,"o":"m 51 935 b 89 972 78 935 89 956 b 51 1010 89 989 78 1010 b 14 972 25 1010 14 989 b 51 935 14 956 25 935 z "},"`":{"ha":193,"x_min":0,"x_max":0,"o":"m 179 815 l 64 1044 l 14 1044 l 129 815 z "},"˝":{"ha":342,"x_min":0,"x_max":0,"o":"m 14 815 l 64 815 l 179 1044 l 129 1044 z m 163 815 l 213 815 l 328 1044 l 278 1044 z "},"¯":{"ha":417,"x_min":0,"x_max":0,"o":"m 14 1000 l 403 1000 l 403 1044 l 14 1044 z "},"˚":{"ha":257,"x_min":0,"x_max":0,"o":"m 128 840 b 243 953 201 840 243 894 b 128 1067 243 1013 201 1067 b 14 953 56 1067 14 1013 b 128 840 14 894 56 840 z m 128 883 b 57 953 82 883 57 914 b 128 1024 57 993 82 1024 b 200 953 175 1024 200 993 b 128 883 200 914 175 883 z "},"˜":{"ha":489,"x_min":0,"x_max":0,"o":"m 125 940 b 361 1003 215 940 276 1003 b 475 967 385 1003 436 997 l 475 1014 b 364 1049 444 1042 393 1049 b 128 986 274 1049 210 986 b 14 1022 106 986 53 990 l 14 975 b 125 940 43 947 94 940 z "}}}
